<?xml version="1.0" encoding="utf-8"?>
<!-- Generator: Adobe Illustrator 18.1.1, SVG Export Plug-In . SVG Version: 6.00 Build 0)  -->
<svg version="1.1" id="Layer_1" xmlns="http://www.w3.org/2000/svg" xmlns:xlink="http://www.w3.org/1999/xlink" x="0px" y="0px"
	 viewBox="0 0 100 80" enable-background="new 0 0 100 80" xml:space="preserve">
<g>
	<g>
		<path fill="#FFFFFF" d="M28.5,79.8H27l-0.7-1.2L24,79.9c-1.3,0-2.2-0.5-2.7-1.4c-0.2-0.5-0.4-1-0.5-1.5c-0.1-0.5-0.1-1.1-0.1-1.7
			c0-0.6,0-1,0-1.3c0-0.3,0-0.6,0.1-1c0-0.4,0.1-0.7,0.2-0.9c0.1-0.3,0.2-0.5,0.4-0.8c0.2-0.3,0.4-0.5,0.6-0.6
			c0.5-0.4,1.2-0.5,2-0.5h2.3v-3.2h2.2V79.8z M26.3,76.6V72h-1.7c-0.6,0-1.1,0.2-1.3,0.7c-0.2,0.5-0.4,1.2-0.4,2.2
			c0,1,0.1,1.6,0.4,2c0.2,0.4,0.7,0.6,1.3,0.6L26.3,76.6z"/>
		<path fill="#FFFFFF" d="M38.5,74.8c0,2.1-0.4,3.5-1.2,4.2c-0.7,0.6-1.7,0.9-2.9,0.9c-1.6,0-2.7-0.5-3.3-1.4
			c-0.5-0.9-0.8-2.1-0.8-3.7c0-1.5,0.3-2.7,0.8-3.5c0.6-1,1.7-1.4,3.2-1.4c1.6,0,2.7,0.4,3.3,1.3C38.2,71.9,38.5,73.2,38.5,74.8z
			 M36.3,75.3v-0.9c0-0.8-0.1-1.5-0.4-1.9c-0.2-0.4-0.8-0.7-1.5-0.7c-1.3,0-1.9,0.8-1.9,2.5v0.9c0,1.8,0.6,2.7,1.9,2.7
			c0.8,0,1.3-0.3,1.6-0.9C36.2,76.6,36.3,76,36.3,75.3z"/>
		<path fill="#FFFFFF" d="M47.9,79.8h-2.2v-6.3c0-0.6-0.1-0.9-0.3-1.1s-0.5-0.3-1-0.3l-2,0.8v6.9h-2.2V70h1.7l0.5,1.2l2.7-1.3
			c0.8,0,1.4,0.3,2,0.8c0.6,0.6,0.8,1.4,0.8,2.5V79.8z"/>
		<path fill="#FFFFFF" d="M56.9,79.8h-1.5l-0.7-1.2l-2.4,1.3c-1.3,0-2.2-0.5-2.7-1.4c-0.2-0.5-0.4-1-0.5-1.5
			c-0.1-0.5-0.1-1.1-0.1-1.7c0-0.6,0-1,0-1.3s0-0.6,0.1-1c0-0.4,0.1-0.7,0.2-0.9c0.1-0.3,0.2-0.5,0.4-0.8c0.2-0.3,0.4-0.5,0.6-0.6
			c0.5-0.4,1.2-0.5,2-0.5h2.3l2.2-0.1V79.8z M54.7,76.6V72H53c-0.6,0-1.1,0.2-1.3,0.7c-0.2,0.5-0.4,1.2-0.4,2.2c0,1,0.1,1.6,0.4,2
			c0.2,0.4,0.7,0.6,1.3,0.6L54.7,76.6z"/>
		<path fill="#FFFFFF" d="M63.5,79.8h-1.4c-0.8,0-1.5-0.3-1.9-0.8c-0.4-0.5-0.7-1.1-0.7-1.8v-5.1h-0.9v-1.7h0.9v-1.9h2.2v1.9h1.6
			v1.7h-1.6v5c0,0.5,0.3,0.8,0.8,0.8h1V79.8z"/>
		<path fill="#FFFFFF" d="M72.7,75.4H67c0,0.9,0.1,1.5,0.4,2c0.3,0.4,0.8,0.6,1.7,0.6c0.5,0,1-0.2,1.2-0.5c0.3-0.3,0.4-0.7,0.4-1h2
			c0,1.2-0.3,2.1-1,2.7C71,79.7,70.2,80,69.1,80c-1.1,0-1.9-0.2-2.5-0.5c-1.2-0.6-1.8-2.3-1.8-5c0-1.6,0.3-2.8,1-3.5
			c0.7-0.7,1.8-1.1,3.2-1.1c2.5,0,3.7,1.4,3.7,4.1C72.7,74.3,72.7,74.8,72.7,75.4z M67,73.9h3.7c0-0.8-0.1-1.3-0.4-1.6
			c-0.3-0.3-0.7-0.5-1.3-0.5c-0.6,0-1.1,0.2-1.4,0.5C67.2,72.6,67,73.1,67,73.9z"/>
	</g>
	<g>
		<g>
			<polygon fill="#FFFFFF" points="67.3,21.9 50,39.2 32.7,21.9 27.2,27.5 50,50.2 50,50.2 50,50.2 72.8,27.5 			"/>
		</g>
		<g>
			<path fill="#FFFFFF" d="M88.1,38.1C88.1,17.1,71,0,50,0C29,0,11.9,17.1,11.9,38.1c0,5.7,1.2,11.1,3.5,15.9h-5.1v7.8h9.9h11h37.7
				h11h9.9V54h-5.1C86.9,49.2,88.1,43.8,88.1,38.1z M24.2,54c-2.9-4.6-4.5-10.1-4.5-15.9C19.7,21.4,33.3,7.8,50,7.8
				c16.7,0,30.3,13.6,30.3,30.3c0,5.8-1.7,11.3-4.5,15.9H24.2z"/>
		</g>
	</g>
</g>
</svg>
