<?xml version="1.0" encoding="utf-8"?>
<!-- Generator: Adobe Illustrator 18.1.1, SVG Export Plug-In . SVG Version: 6.00 Build 0)  -->
<svg version="1.1" id="Layer_1" xmlns="http://www.w3.org/2000/svg" xmlns:xlink="http://www.w3.org/1999/xlink" x="0px" y="0px"
	 viewBox="0 0 251 203" enable-background="new 0 0 251 203" xml:space="preserve">
<g>
	<g>
		<polygon fill="#FFFFFF" points="178.6,73.9 125.5,127.1 72.4,73.9 55.4,90.9 125.5,160.9 125.5,160.9 125.5,160.9 195.6,90.9 		
			"/>
		<path fill="#FFFFFF" d="M242.6,123.6C242.6,59,190.1,6.5,125.5,6.5C60.9,6.5,8.4,59,8.4,123.6c0,17.4,3.8,34,10.7,48.9H3.5v24
			h30.3h33.7h115.9h33.7h30.3v-24h-15.6C238.8,157.6,242.6,141.1,242.6,123.6z M46.3,172.5c-8.8-14.2-13.9-31-13.9-48.9
			c0-51.4,41.8-93.1,93.1-93.1c51.4,0,93.1,41.8,93.1,93.1c0,17.9-5.1,34.7-13.9,48.9H46.3z"/>
	</g>
</g>
</svg>
