<?xml version="1.0" encoding="utf-8"?>
<!-- Generator: Adobe Illustrator 18.1.1, SVG Export Plug-In . SVG Version: 6.00 Build 0)  -->
<svg version="1.1" id="Layer_1" xmlns="http://www.w3.org/2000/svg" xmlns:xlink="http://www.w3.org/1999/xlink" x="0px" y="0px"
	 viewBox="0 0 100 80" enable-background="new 0 0 100 80" xml:space="preserve">
<g>
	<g>
		<polygon fill="#FFFFFF" points="71.8,28.7 50,50.5 28.2,28.7 21.3,35.7 50,64.4 50,64.3 50,64.4 78.7,35.7 		"/>
		<path fill="#FFFFFF" d="M98,49.1c0-26.5-21.5-48-48-48c-26.5,0-48,21.5-48,48c0,7.1,1.6,13.9,4.4,20H0v9.8h12.4h13.8h47.5h13.8
			H100v-9.8h-6.4C96.4,63,98,56.2,98,49.1z M17.5,69.1c-3.6-5.8-5.7-12.7-5.7-20C11.8,28,28.9,10.9,50,10.9
			c21.1,0,38.2,17.1,38.2,38.2c0,7.3-2.1,14.2-5.7,20H17.5z"/>
	</g>
</g>
</svg>
