<?xml version="1.0" encoding="utf-8"?>
<!-- Generator: Adobe Illustrator 18.1.1, SVG Export Plug-In . SVG Version: 6.00 Build 0)  -->
<svg version="1.1" id="Layer_1" xmlns="http://www.w3.org/2000/svg" xmlns:xlink="http://www.w3.org/1999/xlink" x="0px" y="0px"
	 viewBox="0 0 50 50" enable-background="new 0 0 50 50" xml:space="preserve">
<g>
	<path fill="#FFFFFF" d="M90.2-78.2V-90h-7.3c0,0-0.4,9.4-10.3,13.1v7.4h5.9v19.6c0,0,0.2,9.8,14.6,9.8c0,0,6.2-1.1,9.9-4v-7.8
		c0,0-4,2.5-7.3,2.5c-4.6,0-5.7-1.5-5.7-3.5c0-2.1,0-16.4,0-16.4l11.9-0.2v-8.8H90.2z"/>
</g>
<g>
	<path fill="#FFFFFF" d="M-61.4-59.9c0.5,6.1-1.8,9.5-2.7,11.3c-0.8,1.9-4.9,10-16.5,13.3c-11.6,3.3-20.6-3.3-20.6-3.3
		c8.1,1,13.2-3.8,13.2-3.8c-6.9-0.6-8.2-6.3-8.2-6.3c2.9,0.5,3.7-0.3,3.7-0.3c-7.5-2.2-7-8.9-7-8.9c3.1,1.5,3.9,0.9,3.9,0.9
		c-6.7-5.4-2.6-12.1-2.6-12.1c8.8,10.2,18.7,9.6,18.7,9.6c-0.3-2.2-0.3-8.1,5.6-10.5c5.9-2.4,9.8,1.3,9.8,1.3
		c2.4-0.1,8.5-2.8,8.5-2.8c-1.3,3.6-6.5,6.6-6.5,6.6c2.1-0.1,6.5-0.7,6.5-0.7C-56-64.5-61.4-59.9-61.4-59.9z"/>
</g>
<g>
	<polygon fill="#FFFFFF" points="-88.1,-25 -89.9,-17.6 -90,-17.6 -91.9,-25 -94.8,-25 -91.4,-13.9 -91.4,-6.6 -88.5,-6.6 
		-88.5,-14.2 -85.2,-25 	"/>
	<path fill="#FFFFFF" d="M-82.5-8.9c-0.2-0.2-0.3-0.5-0.3-0.9v-7.4c0-0.3,0.1-0.5,0.3-0.7c0.2-0.2,0.4-0.3,0.8-0.3
		c0.3,0,0.6,0.1,0.8,0.3c0.2,0.2,0.3,0.4,0.3,0.7v7.4c0,0.4-0.1,0.7-0.3,0.9c-0.2,0.2-0.5,0.3-0.8,0.3C-82-8.6-82.3-8.7-82.5-8.9
		 M-84.3-19.6c-0.7,0.6-1,1.5-1,2.5l0,7c0,1.2,0.3,2.1,1,2.8c0.7,0.7,1.5,1,2.7,1c1.1,0,2-0.3,2.7-1c0.7-0.7,1-1.6,1-2.7v-7
		c0-1-0.3-1.9-1-2.5c-0.7-0.7-1.5-1-2.6-1C-82.7-20.5-83.6-20.2-84.3-19.6"/>
	<path fill="#FFFFFF" d="M-71.2-20.1v10.3c-0.2,0.3-0.5,0.5-0.8,0.7c-0.3,0.2-0.5,0.3-0.7,0.3c-0.2,0-0.4-0.1-0.5-0.2
		c-0.1-0.1-0.2-0.4-0.2-0.7v-10.4h-2.5v11.4c0,0.8,0.1,1.4,0.4,1.8c0.3,0.4,0.7,0.6,1.3,0.6c0.5,0,1-0.1,1.5-0.4
		c0.5-0.3,1-0.7,1.5-1.3v1.5h2.5v-13.6H-71.2z"/>
	<g>
		<path fill="#FFFFFF" d="M-75.9,8.3c-0.2,0-0.4,0-0.5,0.1c-0.2,0.1-0.4,0.2-0.5,0.4v8.5c0.2,0.2,0.4,0.4,0.6,0.5
			c0.2,0.1,0.4,0.1,0.6,0.1c0.3,0,0.5-0.1,0.7-0.3c0.1-0.2,0.2-0.5,0.2-0.9v-7c0-0.5-0.1-0.8-0.3-1C-75.3,8.4-75.6,8.3-75.9,8.3z"/>
		<path fill="#FFFFFF" d="M-66.6,8.4c-0.4,0-0.7,0.1-0.9,0.4c-0.2,0.2-0.3,0.7-0.3,1.2v1.4h2.2V9.9c0-0.6-0.1-1-0.3-1.2
			C-65.9,8.5-66.2,8.4-66.6,8.4z"/>
		<path fill="#FFFFFF" d="M-59.7,3.2c0-3.3-2.7-5.9-6-5.9c-4.5-0.2-9.1-0.3-13.8-0.3c-0.2,0-0.5,0-0.7,0c-0.2,0-0.5,0-0.7,0
			c-4.7,0-9.3,0.1-13.8,0.3c-3.3,0-6,2.7-6,5.9c-0.2,2.6-0.3,5.2-0.3,7.8c0,2.6,0.1,5.2,0.3,7.8c0,3.3,2.7,5.9,6,5.9
			c4.7,0.2,9.6,0.3,14.5,0.3c4.9,0,9.8-0.1,14.5-0.3c3.3,0,6-2.7,6-5.9c0.2-2.6,0.3-5.2,0.3-7.8C-59.5,8.4-59.5,5.8-59.7,3.2z
			 M-92.1,19.9h-2.8V4.2h-2.9V1.5h8.7v2.7h-2.9V19.9z M-82,19.9h-2.5v-1.5c-0.5,0.6-0.9,1-1.5,1.3c-0.5,0.3-1,0.4-1.5,0.4
			c-0.6,0-1-0.2-1.3-0.6c-0.3-0.4-0.4-1-0.4-1.8V6.3h2.5v10.4c0,0.3,0.1,0.6,0.2,0.7c0.1,0.1,0.3,0.2,0.5,0.2c0.2,0,0.4-0.1,0.7-0.3
			c0.3-0.2,0.5-0.4,0.8-0.7V6.3h2.5V19.9z M-72.2,17.1c0,1-0.2,1.7-0.6,2.2c-0.4,0.5-1,0.8-1.7,0.8c-0.5,0-0.9-0.1-1.3-0.3
			c-0.4-0.2-0.7-0.5-1.1-0.9v1h-2.6V1.5h2.6v5.9c0.3-0.4,0.7-0.7,1.1-0.9c0.4-0.2,0.8-0.3,1.2-0.3c0.8,0,1.4,0.3,1.8,0.9
			c0.4,0.6,0.6,1.4,0.6,2.5V17.1z M-62.9,13.4h-4.8V16c0,0.7,0.1,1.2,0.3,1.5c0.2,0.3,0.5,0.4,0.9,0.4c0.4,0,0.7-0.1,0.9-0.4
			c0.2-0.2,0.2-0.7,0.2-1.5V15h2.6v1c0,1.4-0.3,2.4-0.9,3.1c-0.6,0.7-1.6,1.1-2.8,1.1c-1.1,0-2-0.4-2.7-1.1c-0.7-0.7-1-1.8-1-3.1V10
			c0-1.2,0.4-2.1,1.1-2.9c0.7-0.7,1.6-1.1,2.8-1.1c1.2,0,2,0.3,2.7,1c0.6,0.7,0.9,1.7,0.9,3V13.4z"/>
	</g>
</g>
<circle fill="#E6E6E5" cx="157" cy="7" r="31.5"/>
<g>
	<path fill="#FFFFFF" d="M-18.8-17c1.1,2,1.6,4.1,1.6,6.4c0,7.7-6.2,13.8-13.9,13.8C-38.7,3.3-45-2.8-45-10.5c0-2.4,0.6-4.5,1.6-6.5
		H-57V5.7c0,4.5,4.7,8.3,9.3,8.3h33.3C-9.9,14-7,10.2-7,5.7V-17H-18.8z"/>
	<path fill="#FFFFFF" d="M-14.4-36h-33.3c-4.5,0-9.3,3.8-9.3,8.4v7.6h16c2.5-3,6.1-4.2,10-4.2s7.4,1.2,10,4.2H-7v-7.6
		C-7-32.2-9.9-36-14.4-36z M-13-24.9c0,0.8-0.9,1.9-1.6,1.9h-6.6c-0.8,0-1.7-1.1-1.7-1.9v-6.6c0-0.8,1-1.5,1.7-1.5h6.6
		c0.8,0,1.6,0.8,1.6,1.5V-24.9z"/>
	<circle fill="#FFFFFF" cx="-31.1" cy="-10.7" r="11.2"/>
</g>
<g>
	<path fill="#951D23" d="M24.9,0.4c-13.8,0-25,11.2-25,25s11.2,25,25,25s25-11.2,25-25S38.7,0.4,24.9,0.4z"/>
</g>
<g>
	<path fill="#951D23" d="M-178.2-42.6c-13.8,0-25,11.2-25,25s11.2,25,25,25c13.8,0,25-11.2,25-25S-164.4-42.6-178.2-42.6z"/>
	<path fill="#FFFFFF" d="M-176.1-27v-8.3h-5.2c0,0-0.3,6.7-7.3,9.3v5.2h4.2v13.9c0,0,0.2,7,10.4,7c0,0,4.4-0.8,7-2.8v-5.5
		c0,0-2.8,1.7-5.2,1.7c-3.3,0-4-1-4-2.5c0-1.5,0-11.7,0-11.7l8.5-0.1V-27H-176.1z"/>
</g>
<g>
	<path fill="#951D23" d="M410-42.6c-13.8,0-25,11.2-25,25c0,13.8,11.2,25,25,25c13.8,0,25-11.2,25-25S423.8-42.6,410-42.6z"/>
	<path fill="#FFFFFF" d="M422.5-21.8c0.4,4.3-1.3,6.7-1.9,8c-0.6,1.3-3.5,7.1-11.7,9.4c-8.2,2.3-14.6-2.4-14.6-2.4
		c5.8,0.7,9.4-2.7,9.4-2.7c-4.9-0.5-5.8-4.5-5.8-4.5c2.1,0.3,2.6-0.2,2.6-0.2c-5.3-1.6-4.9-6.3-4.9-6.3c2.2,1,2.8,0.6,2.8,0.6
		c-4.8-3.9-1.9-8.6-1.9-8.6c6.2,7.3,13.3,6.8,13.3,6.8c-0.2-1.6-0.2-5.8,4-7.5c4.2-1.7,6.9,0.9,6.9,0.9c1.7-0.1,6-2,6-2
		c-0.9,2.5-4.6,4.7-4.6,4.7c1.5-0.1,4.6-0.5,4.6-0.5C426.3-25.1,422.5-21.8,422.5-21.8z"/>
</g>
<g>
	<path fill="#951D23" d="M213.9-42.6c-13.8,0-25,11.2-25,25s11.2,25,25,25c13.8,0,25-11.2,25-25S227.7-42.6,213.9-42.6z"/>
	<path fill="none" stroke="#FFFFFF" stroke-miterlimit="10" d="M214-21.9c-0.2,0-0.4,0-0.5,0c-3.5,0-6.9,0.1-10.3,0.2
		c-2.5,0-4.5,2-4.5,4.4c-0.2,1.9-0.2,3.9-0.2,5.8c0,1.9,0.1,3.9,0.2,5.8c0,2.4,2,4.4,4.5,4.4C206.7-1,210.3-1,214-1
		c3.7,0,7.3-0.1,10.8-0.2c2.5,0,4.5-2,4.5-4.4c0.1-1.9,0.2-3.9,0.2-5.8c0-1.9-0.1-3.9-0.2-5.8c0-2.4-2-4.4-4.5-4.4
		c-3.4-0.1-6.8-0.2-10.3-0.2C214.3-21.9,214.1-21.9,214-21.9"/>
	<g>
		<polygon fill="#FFFFFF" points="208.1,-38.2 206.8,-32.7 206.7,-32.7 205.3,-38.2 203.2,-38.2 205.7,-29.9 205.7,-24.5 
			207.8,-24.5 207.8,-30.2 210.3,-38.2 		"/>
		<path fill="#FFFFFF" d="M212.3-26.2c-0.1-0.2-0.2-0.4-0.2-0.6v-5.5c0-0.2,0.1-0.4,0.2-0.5c0.1-0.1,0.3-0.2,0.6-0.2
			c0.2,0,0.4,0.1,0.6,0.2c0.2,0.1,0.2,0.3,0.2,0.5v5.5c0,0.3-0.1,0.5-0.2,0.6c-0.2,0.2-0.4,0.2-0.6,0.2
			C212.7-26,212.5-26.1,212.3-26.2 M211-34.2c-0.5,0.5-0.8,1.1-0.8,1.9l0,5.3c0,0.9,0.2,1.5,0.7,2.1c0.5,0.5,1.2,0.8,2,0.8
			c0.9,0,1.5-0.2,2-0.7c0.5-0.5,0.7-1.2,0.7-2v-5.2c0-0.8-0.2-1.4-0.7-1.9c-0.5-0.5-1.1-0.7-1.9-0.7C212.1-34.9,211.5-34.7,211-34.2
			"/>
		<path fill="#FFFFFF" d="M220.8-34.6v7.7c-0.2,0.2-0.4,0.4-0.6,0.5c-0.2,0.1-0.4,0.2-0.5,0.2c-0.2,0-0.3-0.1-0.4-0.2
			c-0.1-0.1-0.1-0.3-0.1-0.5v-7.8h-1.9v8.5c0,0.6,0.1,1.1,0.3,1.4c0.2,0.3,0.5,0.5,1,0.5c0.4,0,0.7-0.1,1.1-0.3
			c0.4-0.2,0.7-0.5,1.1-0.9v1.1h1.9v-10.1H220.8z"/>
		<path fill="#FFFFFF" d="M207.3-18.5h-6.5v2h2.2v11.8h2.1v-11.8h2.2V-18.5z M210.8-7.2c-0.2,0.2-0.4,0.4-0.6,0.5
			c-0.2,0.1-0.4,0.2-0.5,0.2c-0.2,0-0.3-0.1-0.4-0.2c-0.1-0.1-0.1-0.3-0.1-0.5v-7.8h-1.9v8.5c0,0.6,0.1,1.1,0.3,1.4
			c0.2,0.3,0.5,0.5,1,0.5c0.4,0,0.7-0.1,1.1-0.3c0.4-0.2,0.7-0.5,1.1-0.9v1.1h1.9v-10.1h-1.9V-7.2z M218.1-15
			c-0.3,0-0.6,0.1-0.9,0.2c-0.3,0.2-0.6,0.4-0.8,0.7v-4.4h-1.9v13.8h1.9v-0.8c0.2,0.3,0.5,0.5,0.8,0.7c0.3,0.2,0.6,0.2,1,0.2
			c0.6,0,1-0.2,1.3-0.6c0.3-0.4,0.4-0.9,0.4-1.7v-5.6c0-0.8-0.2-1.5-0.5-1.9C219.2-14.8,218.7-15,218.1-15 M218-7.1
			c0,0.3-0.1,0.6-0.2,0.7c-0.1,0.1-0.3,0.2-0.5,0.2c-0.2,0-0.3,0-0.5-0.1c-0.1-0.1-0.3-0.2-0.4-0.4V-13c0.1-0.1,0.3-0.2,0.4-0.3
			c0.1-0.1,0.3-0.1,0.4-0.1c0.3,0,0.5,0.1,0.6,0.3c0.1,0.2,0.2,0.4,0.2,0.8V-7.1z M226.9-9.6v-2.6c0-1-0.2-1.7-0.7-2.2
			c-0.5-0.5-1.1-0.8-2-0.8c-0.8,0-1.5,0.3-2.1,0.8c-0.5,0.6-0.8,1.3-0.8,2.2v4.6c0,1,0.2,1.7,0.7,2.3c0.5,0.6,1.1,0.8,2,0.8
			c0.9,0,1.6-0.3,2.1-0.8c0.5-0.5,0.7-1.3,0.7-2.3v-0.8H225v0.7c0,0.6-0.1,1-0.2,1.2c-0.1,0.2-0.3,0.3-0.7,0.3
			c-0.3,0-0.5-0.1-0.6-0.3c-0.1-0.2-0.2-0.6-0.2-1.1v-1.9H226.9z M223.3-12.2c0-0.4,0.1-0.7,0.2-0.9c0.1-0.2,0.3-0.3,0.6-0.3
			c0.3,0,0.5,0.1,0.6,0.3c0.1,0.2,0.2,0.5,0.2,0.9v1h-1.7V-12.2z"/>
	</g>
</g>
<g>
	<path fill="#FFFFFF" d="M31.2,26H27c0,7,0,15,0,15h-6c0,0,0-8,0-15h-2v-6h2v-1.2c0-2.3,0.9-6,5.8-6l4.2,0V17c0,0-2,0-2.5,0
		C28,17,27,17.9,27,19v1h4.7L31.2,26z"/>
</g>
</svg>
