<?xml version="1.0" encoding="utf-8"?>
<!-- Generator: Adobe Illustrator 18.1.1, SVG Export Plug-In . SVG Version: 6.00 Build 0)  -->
<svg version="1.1" id="Layer_1" xmlns="http://www.w3.org/2000/svg" xmlns:xlink="http://www.w3.org/1999/xlink" x="0px" y="0px"
	 viewBox="0 0 50 50" enable-background="new 0 0 50 50" xml:space="preserve">
<g>
	<path fill="#FFFFFF" d="M-9.1-61H-15c0,9,0,21,0,21h-9c0,0,0-12,0-21h-3v-9h3v-2.6c0-3.4,1.5-8.7,8.7-8.7l6.3,0v6.3
		c0,0-3.3,0-4.1,0c-0.8,0-1.9,1.2-1.9,2.8v2.2h6.7L-9.1-61z"/>
</g>
<g>
	<path fill="#FFFFFF" d="M90.2-78.2V-90h-7.3c0,0-0.4,9.4-10.3,13.1v7.4h5.9v19.6c0,0,0.2,9.8,14.6,9.8c0,0,6.2-1.1,9.9-4v-7.8
		c0,0-4,2.5-7.3,2.5c-4.6,0-5.7-1.5-5.7-3.5c0-2.1,0-16.4,0-16.4l11.9-0.2v-8.8H90.2z"/>
</g>
<g>
	<path fill="#FFFFFF" d="M-61.4-59.9c0.5,6.1-1.8,9.5-2.7,11.3c-0.8,1.9-4.9,10-16.5,13.3c-11.6,3.3-20.6-3.3-20.6-3.3
		c8.1,1,13.2-3.8,13.2-3.8c-6.9-0.6-8.2-6.3-8.2-6.3c2.9,0.5,3.7-0.3,3.7-0.3c-7.5-2.2-7-8.9-7-8.9c3.1,1.5,3.9,0.9,3.9,0.9
		c-6.7-5.4-2.6-12.1-2.6-12.1c8.8,10.2,18.7,9.6,18.7,9.6c-0.3-2.2-0.3-8.1,5.6-10.5c5.9-2.4,9.8,1.3,9.8,1.3
		c2.4-0.1,8.5-2.8,8.5-2.8c-1.3,3.6-6.5,6.6-6.5,6.6c2.1-0.1,6.5-0.7,6.5-0.7C-56-64.5-61.4-59.9-61.4-59.9z"/>
</g>
<g>
	<polygon fill="#FFFFFF" points="-88.1,-25 -89.9,-17.6 -90,-17.6 -91.9,-25 -94.8,-25 -91.4,-13.9 -91.4,-6.6 -88.5,-6.6 
		-88.5,-14.2 -85.2,-25 	"/>
	<path fill="#FFFFFF" d="M-82.5-8.9c-0.2-0.2-0.3-0.5-0.3-0.9v-7.4c0-0.3,0.1-0.5,0.3-0.7c0.2-0.2,0.4-0.3,0.8-0.3
		c0.3,0,0.6,0.1,0.8,0.3c0.2,0.2,0.3,0.4,0.3,0.7v7.4c0,0.4-0.1,0.7-0.3,0.9c-0.2,0.2-0.5,0.3-0.8,0.3C-82-8.6-82.3-8.7-82.5-8.9
		 M-84.3-19.6c-0.7,0.6-1,1.5-1,2.5l0,7c0,1.2,0.3,2.1,1,2.8c0.7,0.7,1.5,1,2.7,1c1.1,0,2-0.3,2.7-1c0.7-0.7,1-1.6,1-2.7v-7
		c0-1-0.3-1.9-1-2.5c-0.7-0.7-1.5-1-2.6-1C-82.7-20.5-83.6-20.2-84.3-19.6"/>
	<path fill="#FFFFFF" d="M-71.2-20.1v10.3c-0.2,0.3-0.5,0.5-0.8,0.7c-0.3,0.2-0.5,0.3-0.7,0.3c-0.2,0-0.4-0.1-0.5-0.2
		c-0.1-0.1-0.2-0.4-0.2-0.7v-10.4h-2.5v11.4c0,0.8,0.1,1.4,0.4,1.8c0.3,0.4,0.7,0.6,1.3,0.6c0.5,0,1-0.1,1.5-0.4
		c0.5-0.3,1-0.7,1.5-1.3v1.5h2.5v-13.6H-71.2z"/>
	<g>
		<path fill="#FFFFFF" d="M-75.9,8.3c-0.2,0-0.4,0-0.5,0.1c-0.2,0.1-0.4,0.2-0.5,0.4v8.5c0.2,0.2,0.4,0.4,0.6,0.5
			c0.2,0.1,0.4,0.1,0.6,0.1c0.3,0,0.5-0.1,0.7-0.3c0.1-0.2,0.2-0.5,0.2-0.9v-7c0-0.5-0.1-0.8-0.3-1C-75.3,8.4-75.6,8.3-75.9,8.3z"/>
		<path fill="#FFFFFF" d="M-66.6,8.4c-0.4,0-0.7,0.1-0.9,0.4c-0.2,0.2-0.3,0.7-0.3,1.2v1.4h2.2V9.9c0-0.6-0.1-1-0.3-1.2
			C-65.9,8.5-66.2,8.4-66.6,8.4z"/>
		<path fill="#FFFFFF" d="M-59.7,3.2c0-3.3-2.7-5.9-6-5.9c-4.5-0.2-9.1-0.3-13.8-0.3c-0.2,0-0.5,0-0.7,0c-0.2,0-0.5,0-0.7,0
			c-4.7,0-9.3,0.1-13.8,0.3c-3.3,0-6,2.7-6,5.9c-0.2,2.6-0.3,5.2-0.3,7.8c0,2.6,0.1,5.2,0.3,7.8c0,3.3,2.7,5.9,6,5.9
			c4.7,0.2,9.6,0.3,14.5,0.3c4.9,0,9.8-0.1,14.5-0.3c3.3,0,6-2.7,6-5.9c0.2-2.6,0.3-5.2,0.3-7.8C-59.5,8.4-59.5,5.8-59.7,3.2z
			 M-92.1,19.9h-2.8V4.2h-2.9V1.5h8.7v2.7h-2.9V19.9z M-82,19.9h-2.5v-1.5c-0.5,0.6-0.9,1-1.5,1.3c-0.5,0.3-1,0.4-1.5,0.4
			c-0.6,0-1-0.2-1.3-0.6c-0.3-0.4-0.4-1-0.4-1.8V6.3h2.5v10.4c0,0.3,0.1,0.6,0.2,0.7c0.1,0.1,0.3,0.2,0.5,0.2c0.2,0,0.4-0.1,0.7-0.3
			c0.3-0.2,0.5-0.4,0.8-0.7V6.3h2.5V19.9z M-72.2,17.1c0,1-0.2,1.7-0.6,2.2c-0.4,0.5-1,0.8-1.7,0.8c-0.5,0-0.9-0.1-1.3-0.3
			c-0.4-0.2-0.7-0.5-1.1-0.9v1h-2.6V1.5h2.6v5.9c0.3-0.4,0.7-0.7,1.1-0.9c0.4-0.2,0.8-0.3,1.2-0.3c0.8,0,1.4,0.3,1.8,0.9
			c0.4,0.6,0.6,1.4,0.6,2.5V17.1z M-62.9,13.4h-4.8V16c0,0.7,0.1,1.2,0.3,1.5c0.2,0.3,0.5,0.4,0.9,0.4c0.4,0,0.7-0.1,0.9-0.4
			c0.2-0.2,0.2-0.7,0.2-1.5V15h2.6v1c0,1.4-0.3,2.4-0.9,3.1c-0.6,0.7-1.6,1.1-2.8,1.1c-1.1,0-2-0.4-2.7-1.1c-0.7-0.7-1-1.8-1-3.1V10
			c0-1.2,0.4-2.1,1.1-2.9c0.7-0.7,1.6-1.1,2.8-1.1c1.2,0,2,0.3,2.7,1c0.6,0.7,0.9,1.7,0.9,3V13.4z"/>
	</g>
</g>
<circle fill="#E6E6E5" cx="157" cy="7" r="31.5"/>
<g>
	<path fill="#FFFFFF" d="M38.2,19c1.1,2,1.6,4.1,1.6,6.4c0,7.7-6.2,13.8-13.9,13.8c-7.7,0-13.9-6.1-13.9-13.8c0-2.4,0.6-4.5,1.6-6.5
		H0v22.7C0,46.2,4.7,50,9.3,50h33.3c4.5,0,7.4-3.8,7.4-8.3V19H38.2z"/>
	<path fill="#FFFFFF" d="M42.6,0H9.3C4.7,0,0,3.8,0,8.4V16h16c2.5-3,6.1-4.2,10-4.2s7.4,1.2,10,4.2H50V8.4C50,3.8,47.1,0,42.6,0z
		 M44,11.1c0,0.8-0.9,1.9-1.6,1.9h-6.6C35,13,34,11.9,34,11.1V4.5C34,3.8,35,3,35.7,3h6.6C43.1,3,44,3.8,44,4.5V11.1z"/>
	<circle fill="#FFFFFF" cx="25.9" cy="25.3" r="11.2"/>
</g>
</svg>
