<?xml version="1.0" encoding="utf-8"?>
<!-- Generator: Adobe Illustrator 18.1.1, SVG Export Plug-In . SVG Version: 6.00 Build 0)  -->
<svg version="1.1" id="Layer_1" xmlns="http://www.w3.org/2000/svg" xmlns:xlink="http://www.w3.org/1999/xlink" x="0px" y="0px"
	 viewBox="0 0 150 150" enable-background="new 0 0 150 150" xml:space="preserve">
<path fill="#131313" d="M136.4,17.5h-0.3l-113.9,24c-3,0.1-5.6,1.4-7.7,3.4c-0.3-2.8-1.5-4.7-5.5-4.7H7.6c-6,0-5.7,3.9-5.7,8.6v36.8
	c0,4.8,0,8.6,5.7,8.6H9c4.4,0,5.4-2.3,5.6-5.6c1.6,1.6,3.7,2.8,6,3.2l-3.4,11c-1.7,5.4,1.3,11.1,6.7,12.7L76.7,132
	c1,0.3,2,0.5,3,0.5c4.3,0,8.4-2.8,9.7-7.2l5.4-17.2l41.3,9.1h0.3c6.4,0,11.7-5.6,11.7-12.6V30.1C148.1,23.2,142.9,17.5,136.4,17.5z
	 M17.3,79.6V54.1c0-3.4,2.4-6.2,5.3-6.2h0.3l19.2-4.1v46.1l-19.2-4.2h-0.3C19.6,85.7,17.3,83,17.3,79.6z M83.3,123.4
	c-0.3,1-1,1.8-1.9,2.2c-0.9,0.5-1.9,0.6-2.9,0.3l-52.8-16.4c-2-0.6-3.1-2.7-2.5-4.7l3.6-11.6l61.6,13.5L83.3,123.4z M141.7,104.6
	c0,3.3-2.2,6-5,6.2L48.5,91.4V42.5l88.2-18.6c2.8,0.2,5,2.9,5,6.2V104.6z"/>
<path fill="#131313" d="M-410.6,5.8c-33.9,0-61.4,27.5-61.4,61.4s27.5,61.4,61.4,61.4s61.4-27.5,61.4-61.4S-376.7,5.8-410.6,5.8z
	 M-404.5,91.3l17.6,17.6c-5.3,3-11.3,5.1-17.6,5.9V91.3z M-417,114.7c-6.4-0.9-12.4-3-17.7-6.1l17.7-17.7V114.7z M-376.9,101.3
	l-27.6-27.6V47.8h17.9l-23.9-23.9l0,0l0,0l-23.9,23.9h17.5v25.5l-27.6,27.6c-8.6-8.6-13.8-20.5-13.8-33.6
	c0-26.4,21.5-47.9,47.9-47.9c26.4,0,47.9,21.5,47.9,47.9C-362.7,80.5-368.2,92.6-376.9,101.3z"/>
</svg>
