<?xml version="1.0" encoding="utf-8"?>
<!-- Generator: Adobe Illustrator 18.1.1, SVG Export Plug-In . SVG Version: 6.00 Build 0)  -->
<svg version="1.1" id="Layer_1" xmlns="http://www.w3.org/2000/svg" xmlns:xlink="http://www.w3.org/1999/xlink" x="0px" y="0px"
	 viewBox="0 0 1080 1224" enable-background="new 0 0 1080 1224" xml:space="preserve">
<g>
	<path fill="#FFFFFF" d="M2678.4,1141.2c-181.4,0-330.5-142.6-330.5-317.5c0-4.3,0-8.6,0-13c0-4.3,0-15.1,0-28.1l0,0v-15.1
		c0-2.2,0-4.3,0-6.5v-2.2v-4.3v-378c0-51.8,43.2-95,95-95c19.4,0,36.7,6.5,51.8,15.1v-51.8c0-51.8,43.2-95,95-95
		c19.4,0,36.7,6.5,51.8,15.1c6.5-45.4,45.4-82.1,95-82.1c47.5,0,88.6,36.7,95,82.1c15.1-10.8,32.4-15.1,51.8-15.1
		c43.2,0,79.9,28.1,90.7,67h4.3v25.9l0,0v451.4l86.4-95l2.2,2.2c15.1-8.6,32.4-13,49.7-13c23.8,0,45.4,8.6,64.8,23.8
		c32.4,28.1,38.9,73.4,21.6,110.2l2.2,2.2l-17.3,19.4l0,0l0,0l-254.9,280.8c-2.2,2.2-2.2,2.2-4.3,4.3L2903,1057h-4.3
		C2836.1,1113.1,2760.5,1141.2,2678.4,1141.2z M2406.2,726.5L2406.2,726.5v28.1c0,2.2,0,4.3,0,6.5c0,17.3,0,49.7,0,49.7l0,0l0,0
		c0,4.3,0,6.5,0,10.8c0,142.6,123.1,261.4,272.2,261.4c71.3,0,138.2-25.9,187.9-71.3l8.6-8.6l6.5-6.5c2.2-2.2,2.2-2.2,4.3-4.3
		L3121.2,733l0,0l21.6-21.6c13-15.1,13-38.9-2.2-54c-6.5-6.5-15.1-10.8-25.9-10.8s-21.6,4.3-28.1,13l0,0l-19.4,21.6l0,0l-90.7,99.4
		v2.2h-2.2l-56.2,62.6l2.2-75.6c0-2.2,0-4.3,0-6.5c0-2.2,0-4.3,0-6.5v-28.1l0,0V272.9l0,0v-30.2c0-21.6-17.3-36.7-38.9-36.7
		c-21.6,0-38.9,17.3-38.9,38.9l0,0v28.1l0,0V666h-71.3V177.8c0-21.6-17.3-38.9-38.9-38.9c-21.6,0-38.9,17.3-38.9,38.9v490.3h-71.3
		V244.8c0-21.6-17.3-38.9-38.9-38.9c-21.6,0-38.9,17.3-38.9,38.9v423.4h-71.3V376.6c0-21.6-17.3-38.9-38.9-38.9
		c-21.6,0-38.9,17.3-38.9,38.9v349.9H2406.2z"/>
</g>
<g>
	<path fill="#FFFFFF" d="M-2106,521.3c6.5,15.1,19.4,25.9,36.7,25.9c4.3,0,8.6,0,13-2.2l121-43.2c19.4-6.5,30.2-28.1,21.6-49.7
		l-32.4-88.6c-6.5-15.1-19.4-25.9-36.7-25.9c-4.3,0-8.6,0-13,2.2l-121,43.2c-19.4,6.5-30.2,28.1-21.6,49.7L-2106,521.3z
		 M-1993.7,396l21.6,58.3l-88.6,32.4l-21.6-58.3L-1993.7,396z"/>
	<path fill="#FFFFFF" d="M-2125.4,517l-21.6-60.5c-6.5-17.3-21.6-28.1-41-28.1c-4.3,0-10.8,0-15.1,2.2l-84.2,30.2
		c-10.8,4.3-19.4,10.8-23.8,21.6c0,0,0,2.2-2.2,2.2c-2.2-4.3-8.6-4.3-13-2.2c-6.5,2.2-8.6,8.6-6.5,15.1l36.7,99.4
		c2.2,6.5,8.6,8.6,15.1,6.5c4.3-2.2,6.5-4.3,6.5-6.5c6.5,4.3,15.1,6.5,23.8,6.5c4.3,0,10.8,0,15.1-2.2l84.2-30.2
		C-2129.8,564.5-2119,540.7-2125.4,517z M-2244.2,549.4l-13-38.9l62.6-23.8l13,38.9L-2244.2,549.4z"/>
	<path fill="#FFFFFF" d="M-1473.1,331.2l-73.4-198.7c-4.3-8.6-13-13-21.6-10.8l-4.3,2.2c-8.6,4.3-13,13-10.8,21.6l0,0
		c-2.2,0-2.2,0-4.3,2.2l-326.2,118.8c-10.8,4.3-19.4,10.8-23.8,21.6c-4.3,10.8-4.3,21.6-2.2,32.4l43.2,121
		c6.5,17.3,21.6,28.1,38.9,28.1c4.3,0,10.8,0,15.1-2.2l326.2-118.8c2.2,0,2.2-2.2,4.3-2.2c4.3,8.6,13,13,21.6,8.6l4.3-2.2
		C-1475.3,350.6-1471,342-1473.1,331.2z M-1846.8,413.3l-34.6-97.2l302.4-110.2l34.6,97.2L-1846.8,413.3z"/>
	<path fill="#FFFFFF" d="M-2211.8,1102.3h51.8l159.8-306.7v306.7h54V793.4l159.8,306.7h51.8l8.6-4.3l-198.7-382.3h60.5l4.3-2.2
		c28.1-10.8,43.2-41,32.4-71.3l-34.6-92.9c-8.6-21.6-28.1-36.7-51.8-36.7c-6.5,0-13,2.2-19.4,4.3l-138.2,51.8
		c-32.4,10.8-34.6,34.6-34.6,60.5l-2.2,49.7l2.2,4.3c13,34.6,41,34.6,60.5,34.6l0,0h23.8l-198.7,382.3L-2211.8,1102.3z
		 M-2043.4,661.7c-2.2,0-6.5,0-6.5,0l2.2-32.4l0,0c0-4.3,0-8.6,0-10.8l138.2-49.7l34.6,92.9H-2043.4z"/>
</g>
<g>
	<g>
		<circle fill="#FFFFFF" cx="3469" cy="499.7" r="90.7"/>
	</g>
	<g>
		<circle fill="#FFFFFF" cx="3723.8" cy="499.7" r="90.7"/>
	</g>
	<g>
		<path fill="#FFFFFF" d="M3799.4,1141.2c-75.6,0-159.8-13-250.6-41c-121-34.6-222.5-38.9-300.2-10.8l-38.9,15.1v-635
			c0-213.8,172.8-386.6,386.6-386.6S3983,255.6,3983,469.4v637.2l-19.4,6.5C3918.2,1132.6,3862.1,1141.2,3799.4,1141.2z
			 M3367.4,1013.8c60.5,0,127.4,10.8,198.7,32.4c144.7,43.2,267.8,49.7,362.9,21.6V469.4C3929,288,3780,139,3598.6,139
			c-181.4,0-330.5,149-330.5,330.5v555.1C3298.3,1018.1,3330.7,1013.8,3367.4,1013.8z"/>
	</g>
</g>
<g>
	<path fill="#FFFFFF" d="M-6223,180v-21.6h-21.6c-151.2-6.5-272.2,47.5-278.6,54L-6979,668.2c-13,13-13,32.4,0,43.2l203,203
		c13,13,32.4,13,43.2,0l455.8-455.8C-6270.5,452.2-6216.5,331.2-6223,180z M-6268.3,201.6c0,82.1-15.1,144.7-28.1,181.4
		l-153.4-153.4C-6413,216.7-6350.4,201.6-6268.3,201.6z M-6754.3,871.2l-183.6-183.6l436.3-434.2L-6318,437L-6754.3,871.2z"/>
	<path fill="#FFFFFF" d="M-7132.3,463l159.8,159.8l241.9-241.9l-328.3,8.6L-7132.3,463z M-7039.4,432.7l198.7-4.3l-131.8,131.8
		l-97.2-97.2L-7039.4,432.7z"/>
	<path fill="#FFFFFF" d="M-6445.4,663.8l-241.9,241.9l159.8,159.8l73.4-73.4L-6445.4,663.8z M-6527.5,1003l-97.2-97.2L-6493,774
		l-4.3,198.7L-6527.5,1003z"/>
	<path fill="#FFFFFF" d="M-6801.8,918.7l-181.4-181.4c-10.8-10.8-30.2-10.8-43.2,0l-36.7,36.7c-10.8,10.8-10.8,30.2,0,43.2
		l181.4,181.4c10.8,10.8,30.2,10.8,43.2,0l36.7-36.7C-6791,949-6791,929.5-6801.8,918.7z M-6860.2,955.4L-7020,795.6l15.1-15.1
		l159.8,159.8L-6860.2,955.4z"/>
	<path fill="#FFFFFF" d="M-6631.2,566.6c32.4,32.4,97.2,17.3,151.2-34.6c51.8-51.8,67-116.6,34.6-151.2
		c-32.4-32.4-97.2-17.3-151.2,34.6C-6650.6,469.4-6665.8,534.2-6631.2,566.6z M-6477.8,413.3c10.8,10.8,2.2,49.7-34.6,86.4
		c-36.7,36.7-75.6,45.4-86.4,34.6c-10.8-10.8-2.2-49.7,34.6-86.4C-6529.7,411.1-6488.6,402.5-6477.8,413.3z"/>
</g>
<path fill="#FFFFFF" d="M-4073.8,713.5c25.9-8.6,49.7-17.3,71.3-28.1c101.5-45.4,153.4-95,146.9-144.7
	c-10.8-73.4-136.1-103.7-276.5-108c41-146.9,45.4-272.2-19.4-302.4c-84.2-41-216,108-319.7,285.1
	c-97.2-62.6-183.6-110.2-252.7-140.4c-84.2-36.7-131.8-41-151.2-15.1s0,67,58.3,133.9c32.4,34.6,73.4,75.6,121,118.8
	c-125.3,43.2-226.8,103.7-218.2,172.8c6.5,49.7,69.1,84.2,179.3,99.4c30.2,4.3,62.6,6.5,97.2,8.6c-38.9,144.7-45.4,270,19.4,302.4
	c8.6,4.3,19.4,6.5,30.2,6.5c82.1,0,194.4-129.6,289.4-291.6c88.6,58.3,172.8,103.7,239.8,133.9c56.2,25.9,97.2,38.9,123.1,38.9
	c19.4,0,32.4-6.5,38.9-17.3c19.4-28.1-2.2-73.4-73.4-151.2C-3993.8,784.8-4030.6,750.2-4073.8,713.5z M-3892.3,545
	c2.2,23.8-28.1,62.6-123.1,105.8c-28.1,13-58.3,23.8-90.7,34.6c-25.9-21.6-51.8-43.2-79.9-67c13-19.4,21.6-45.4,21.6-69.1
	c0-4.3,0-6.5,0-10.8c8.6-23.8,17.3-45.4,23.8-69.1C-3985.2,473.8-3896.6,508.3-3892.3,545z M-4471.2,475.9c2.2,0,8.6,0,8.6,0
	c38.9,4.3,73.4,32.4,79.9,71.3c-49.7,2.2-92.9,32.4-114.5,75.6c-23.8-17.3-45.4-34.6-67-51.8c0-2.2,0-4.3,0-6.5
	C-4561.9,517-4520.9,475.9-4471.2,475.9z M-4378.3,586.1c49.7,0,90.7,41,90.7,90.7c0,19.4-6.5,38.9-17.3,54
	c-10.8,2.2-21.6,4.3-34.6,6.5c-30.2-19.4-60.5-41-88.6-62.6c-13-8.6-23.8-17.3-36.7-25.9C-4451.8,612-4417.2,586.1-4378.3,586.1z
	 M-4205.5,532.1c-10.8,28.1-21.6,58.3-34.6,86.4c-4.3,4.3-10.8,6.5-17.3,10.8c-15.1-36.7-45.4-67-86.4-77.8
	c-2.2-23.8-10.8-45.4-23.8-62.6c17.3-21.6,43.2-34.6,71.3-34.6C-4248.7,456.5-4212,488.9-4205.5,532.1z M-4192.6,467.3
	c4.3,0,6.5,0,10.8,0c-2.2,4.3-2.2,6.5-4.3,10.8C-4188.2,473.8-4190.4,471.6-4192.6,467.3z M-4615.9,527.8c8.6-2.2,17.3-4.3,23.8-6.5
	c-2.2,6.5-4.3,15.1-6.5,21.6C-4603,538.6-4609.4,532.1-4615.9,527.8z M-4551.1,668.2c13,10.8,28.1,19.4,45.4,23.8
	c2.2,23.8,10.8,43.2,23.8,62.6c-34.6,2.2-69.1,4.3-101.5,4.3C-4574.9,728.6-4564.1,698.4-4551.1,668.2z M-4466.9,691.9
	c6.5,4.3,10.8,8.6,17.3,13c19.4,13,36.7,25.9,56.2,38.9c-13,2.2-25.9,2.2-38.9,4.3C-4449.6,735.1-4462.6,715.7-4466.9,691.9z
	 M-4229.3,685.4c6.5-13,13-25.9,17.3-38.9c21.6,17.3,41,34.6,60.5,49.7c-30.2,8.6-62.6,17.3-97.2,23.8
	C-4240.1,709.2-4233.6,696.2-4229.3,685.4z M-4168.8,162.7c21.6,10.8,36.7,58.3,21.6,162c-4.3,32.4-13,67-23.8,103.7
	c-23.8,0-45.4,0-69.1,0c-17.3-8.6-36.7-13-56.2-13c-38.9,0-73.4,17.3-97.2,45.4c-15.1-10.8-30.2-19.4-49.7-21.6
	C-4328.6,242.6-4212,141.1-4168.8,162.7z M-4777.9,374.4c-60.5-67-62.6-90.7-62.6-95c4.3-2.2,28.1-6.5,114.5,32.4
	c62.6,28.1,142.6,73.4,229,129.6c-25.9,6.5-49.7,15.1-67,34.6l0,0c-28.1,6.5-56.2,15.1-84.2,21.6
	C-4702.3,452.2-4745.5,411.1-4777.9,374.4z M-4726.1,748.1c-103.7-15.1-144.7-45.4-146.9-67c-4.3-36.7,69.1-92.9,213.8-138.2
	c19.4,15.1,38.9,32.4,58.3,49.7c2.2,0,2.2,2.2,4.3,2.2c2.2,15.1,8.6,30.2,17.3,43.2c-15.1,38.9-30.2,79.9-43.2,121
	C-4659.1,754.6-4693.7,752.4-4726.1,748.1z M-4458.2,974.9c-71.3,77.8-118.8,95-140.4,86.4c-34.6-17.3-38.9-118.8,2.2-265.7
	c4.3,0,8.6,0,13,0c45.4,0,90.7-2.2,140.4-6.5c19.4,10.8,41,17.3,64.8,17.3c15.1,0,32.4-2.2,45.4-8.6
	C-4371.8,866.9-4415,927.4-4458.2,974.9z M-4050,905.8c-62.6-30.2-142.6-75.6-226.8-129.6c2.2-4.3,4.3-8.6,8.6-15.1
	c54-10.8,105.8-23.8,153.4-36.7c45.4,38.9,84.2,75.6,114.5,108c73.4,77.8,77.8,105.8,77.8,110.2C-3929,946.8-3955,951.1-4050,905.8z
	"/>
<path fill="#FFFFFF" d="M1023.8,2238.5h-2.2l-844.6,177.1c-21.6,0-41,10.8-56.2,25.9c-2.2-21.6-10.8-34.6-41-34.6H69.1
	c-45.4,0-43.2,28.1-43.2,64.8v272.2c0,34.6,0,64.8,43.2,64.8h10.8c32.4,0,41-17.3,41-41c13,13,28.1,19.4,43.2,23.8l-25.9,82.1
	c-13,38.9,10.8,82.1,49.7,95l391,121c6.5,2.2,15.1,4.3,21.6,4.3c32.4,0,62.6-21.6,71.3-54l38.9-127.4l306.7,67h2.2
	c47.5,0,86.4-41,86.4-92.9v-550.8C1110.2,2279.5,1071.4,2238.5,1023.8,2238.5z M140.4,2698.6v-187.9c0-25.9,17.3-45.4,38.9-45.4h2.2
	L324,2435v341.3l-142.6-30.2h-2.2C157.7,2743.9,140.4,2722.3,140.4,2698.6z M630.7,3022.6c-2.2,6.5-6.5,13-13,17.3
	c-6.5,4.3-15.1,4.3-21.6,2.2l-391-121c-15.1-4.3-23.8-19.4-19.4-34.6l25.9-86.4l455.8,99.4L630.7,3022.6z M1062.7,2882.2
	c0,23.8-17.3,43.2-36.7,45.4L373.7,2785v-360.7L1026,2286c21.6,2.2,36.7,21.6,36.7,45.4V2882.2z"/>
<g>
	<path fill="#FFFFFF" d="M970.7,201.7l-0.8-19.7l-19.7-0.7c-143-5.3-258.7,44.9-264.4,50.7L254.7,663c-11.4,11.4-11.4,29.9,0,41.2
		l193,193c11.4,11.4,29.9,11.4,41.2,0L920,466.2C925.8,460.4,976.5,345.3,970.7,201.7z M928.7,223.4c0.5,77.8-14.7,138-25.7,171.2
		L757.5,249.1C790.7,238.2,850.8,223.1,928.7,223.4z M468.3,857.7L294.2,683.6l412.2-412.2l174.1,174.1L468.3,857.7z"/>
	<path fill="#FFFFFF" d="M108.8,469.9l151.9,151.9l229.6-229.6l-312,8.2L108.8,469.9z M196.4,442.5l188.5-4.9L260.8,561.7L169,469.9
		L196.4,442.5z"/>
	<path fill="#FFFFFF" d="M759.7,661.6L530.1,891.2l151.9,151.9l69.5-69.5L759.7,661.6z M682.1,983l-91.8-91.8L714.4,767l-4.9,188.5
		L682.1,983z"/>
	<path fill="#FFFFFF" d="M421.7,902L249.9,730.3c-11.1-11.1-29.2-11.1-40.3,0l-34.9,34.9c-11.1,11.1-11.1,29.2,0,40.3l171.7,171.7
		c11.1,11.1,29.2,11.1,40.3,0l34.9-34.9C432.8,931.2,432.8,913.2,421.7,902z M366.6,937.3L214.7,785.3l15.1-15.1l151.9,151.9
		L366.6,937.3z"/>
	<path fill="#FFFFFF" d="M583.2,568.8c31.4,31.4,92.8,17.3,142.8-32.7c50-50,64.1-111.4,32.7-142.8c-31.4-31.4-92.8-17.3-142.8,32.7
		C565.9,476,551.8,537.4,583.2,568.8z M728.7,423.3c10.2,10.2,2.5,47.5-32.7,82.7c-35.2,35.2-72.5,42.9-82.7,32.7
		c-10.2-10.2-2.5-47.5,32.7-82.7C681.2,420.8,718.5,413.1,728.7,423.3z"/>
</g>
</svg>
