<?xml version="1.0" encoding="utf-8"?>
<!-- Generator: Adobe Illustrator 18.1.1, SVG Export Plug-In . SVG Version: 6.00 Build 0)  -->
<svg version="1.1" id="Layer_1" xmlns="http://www.w3.org/2000/svg" xmlns:xlink="http://www.w3.org/1999/xlink" x="0px" y="0px"
	 viewBox="0 0 50 50" enable-background="new 0 0 50 50" xml:space="preserve">
<g>
	<path fill="#FFFFFF" d="M-142.3,13.8c-4.6,0-8.3-3.6-8.3-8c0-0.1,0-0.2,0-0.3c0-0.1,0-0.4,0-0.7h0l0-0.4c0-0.1,0-0.1,0-0.2
		c0,0,0,0,0-0.1l0-0.1v-9.6c0-1.3,1.1-2.4,2.4-2.4c0.5,0,0.9,0.1,1.3,0.4v-1.3c0-1.3,1.1-2.4,2.4-2.4c0.5,0,0.9,0.1,1.3,0.4
		c0.2-1.2,1.2-2.1,2.4-2.1c1.2,0,2.2,0.9,2.4,2.1c0.4-0.3,0.8-0.4,1.3-0.4c1.1,0,2,0.7,2.3,1.7h0.1l0,0.7c0,0,0,0,0,0V2.6l2.2-2.4
		l0.1,0.1c0.4-0.2,0.8-0.3,1.2-0.3c0.6,0,1.2,0.2,1.6,0.6c0.8,0.7,1,1.9,0.6,2.8l0.1,0.1l-0.5,0.5c0,0,0,0,0,0l0,0L-136,11
		c0,0-0.1,0.1-0.1,0.1l-0.6,0.7l-0.1,0C-138.3,13.1-140.3,13.8-142.3,13.8z M-149.2,3.3L-149.2,3.3l0,0.7c0,0.1,0,0.1,0,0.2
		c0,0.4,0,1.2,0,1.2l0,0l0,0c0,0.1,0,0.2,0,0.3c0,3.6,3.1,6.6,6.9,6.6c1.8,0,3.5-0.6,4.8-1.8l0.2-0.2l0.2-0.2c0,0,0.1-0.1,0.1-0.1
		l6-6.6l0,0l0.5-0.6c0.4-0.4,0.3-1-0.1-1.3c-0.2-0.2-0.4-0.2-0.6-0.2c-0.3,0-0.5,0.1-0.7,0.3l0,0l-0.5,0.5l0,0l-2.3,2.5v0.1h-0.1
		l-1.4,1.6l0-1.9c0-0.1,0-0.1,0-0.2c0-0.1,0-0.1,0-0.2l0-0.7h0V-8.1h0l0-0.8c0-0.5-0.4-1-1-1c-0.5,0-1,0.4-1,1l0,0l0,0.7h0v9.9h-1.8
		v-12.4c0-0.5-0.4-1-1-1c-0.5,0-1,0.4-1,1V1.8h-1.8V-8.9c0-0.5-0.4-1-1-1c-0.5,0-1,0.4-1,1V1.8h-1.8v-7.3c0-0.5-0.4-1-1-1
		c-0.5,0-1,0.4-1,1V3.3z"/>
</g>
<g>
	<path fill="#FFFFFF" d="M-144.9-58.7c0.1,0.4,0.5,0.6,0.9,0.6c0.1,0,0.2,0,0.3-0.1l3-1.1c0.5-0.2,0.8-0.7,0.6-1.2l-0.8-2.3
		c-0.1-0.4-0.5-0.6-0.9-0.6c-0.1,0-0.2,0-0.3,0.1l-3,1.1c-0.5,0.2-0.8,0.7-0.6,1.2L-144.9-58.7z M-142-61.8l0.5,1.5l-2.2,0.8
		l-0.5-1.5L-142-61.8z"/>
	<path fill="#FFFFFF" d="M-145.4-58.7l-0.6-1.5c-0.2-0.4-0.6-0.7-1-0.7c-0.1,0-0.3,0-0.4,0.1l-2.1,0.8c-0.3,0.1-0.5,0.3-0.6,0.6
		c0,0,0,0,0,0.1c-0.1-0.1-0.2-0.1-0.3-0.1c-0.2,0.1-0.2,0.2-0.2,0.4l0.9,2.5c0.1,0.2,0.2,0.2,0.4,0.2c0.1,0,0.2-0.1,0.2-0.2
		c0.2,0.1,0.4,0.2,0.6,0.2c0.1,0,0.3,0,0.4-0.1l2.1-0.8C-145.5-57.5-145.2-58.2-145.4-58.7z M-148.4-58l-0.4-1l1.6-0.6l0.4,1
		L-148.4-58z"/>
	<path fill="#FFFFFF" d="M-128.9-63.4l-1.8-5c-0.1-0.2-0.3-0.3-0.6-0.3l-0.1,0c-0.2,0.1-0.3,0.3-0.3,0.6l0,0c0,0-0.1,0-0.1,0l-8.2,3
		c-0.3,0.1-0.5,0.3-0.6,0.6c-0.1,0.3-0.1,0.5,0,0.8l1.1,3c0.2,0.4,0.6,0.7,1,0.7c0.1,0,0.2,0,0.4-0.1l8.2-3c0,0,0.1,0,0.1,0
		c0.1,0.2,0.3,0.3,0.5,0.2l0.1,0C-128.9-63-128.8-63.2-128.9-63.4z M-138.4-61.4l-0.9-2.5l7.6-2.8l0.9,2.5L-138.4-61.4z"/>
	<path fill="#FFFFFF" d="M-147.6-44h1.3l4-7.8v7.8h1.4v-7.8l4,7.8h1.3l0.2-0.1l-5-9.7l1.5,0l0.1,0c0.7-0.3,1.1-1.1,0.8-1.8l-0.9-2.4
		c-0.2-0.5-0.7-0.9-1.3-0.9c-0.2,0-0.3,0-0.5,0.1l-3.5,1.3c-0.8,0.3-0.9,0.9-0.9,1.5l0,1.3l0,0.1c0.3,0.9,1,0.9,1.5,0.9h0l0.6,0
		l-5,9.7L-147.6-44z M-143.3-55.1c-0.1,0-0.1,0-0.2,0l0-0.8l0,0c0-0.1,0-0.2,0-0.3l3.5-1.3l0.9,2.3L-143.3-55.1z"/>
</g>
<g>
	<path fill="#FFFFFF" d="M-143.4,106.3c-2.1-0.2-4,0.6-5.4,2v-9.6h-1.8v13.2c-0.1,0.7-0.1,1.5,0,2.2c0.6,3,3.1,5.3,6.2,5.4
		c4,0.2,7.3-3.1,7-7.1C-137.5,109.2-140.1,106.5-143.4,106.3z M-143.6,117.8c-2.6,0.2-4.7-1.6-5.1-4v-1.7c0.4-2.3,2.4-4.1,4.8-4.1
		c2.8,0,5.1,2.4,4.9,5.2C-139.2,115.7-141.2,117.7-143.6,117.8z"/>
	<path fill="#FFFFFF" d="M-144,101.8c-1.1,0-2.2,0.2-3.3,0.5c-0.2,0.1-0.3,0.2-0.3,0.4v1.5l0.1,0.1c1.1-0.5,2.3-0.7,3.5-0.7
		c4.9,0,9,3.7,9.3,8.6c0,0.2,0.2,0.4,0.4,0.4l1,0c0.2,0,0.4-0.2,0.4-0.4C-133.3,106.3-138.1,101.8-144,101.8z"/>
	<path fill="#FFFFFF" d="M-133.4,102.1c-2.8-2.8-6.6-4.3-10.5-4.3c-1.1,0-2.3,0.1-3.4,0.4c-0.1,0-0.2,0.2-0.2,0.3v1.2
		c0,0.2,0.2,0.3,0.4,0.3c1-0.3,2.1-0.4,3.2-0.4c7.1,0,12.9,5.5,13.3,12.6c0,0.2,0.1,0.3,0.3,0.3l1.2,0c0.2,0,0.3-0.2,0.3-0.3
		C-129.1,108.3-130.7,104.8-133.4,102.1z"/>
</g>
<g>
	<g>
		<circle fill="#FFFFFF" cx="-143" cy="162.1" r="2.3"/>
	</g>
	<g>
		<circle fill="#FFFFFF" cx="-136.5" cy="162.1" r="2.3"/>
	</g>
	<g>
		<path fill="#FFFFFF" d="M-134.6,178.3c-1.9,0-4-0.3-6.3-1c-3.1-0.9-5.6-1-7.6-0.3l-1,0.4v-16.1c0-5.4,4.4-9.8,9.8-9.8
			s9.8,4.4,9.8,9.8v16.1l-0.5,0.2C-131.7,178.1-133.1,178.3-134.6,178.3z M-145.6,175.1c1.5,0,3.2,0.3,5,0.8
			c3.7,1.1,6.8,1.2,9.1,0.5v-15.1c0-4.6-3.7-8.3-8.3-8.3c-4.6,0-8.3,3.7-8.3,8.3v14.1C-147.3,175.2-146.5,175.1-145.6,175.1z"/>
	</g>
</g>
<g>
	<path fill="#FFFFFF" d="M-128.3-176.6l0-0.5l-0.5,0c-3.8-0.1-6.9,1.2-7.1,1.4l-11.5,11.5c-0.3,0.3-0.3,0.8,0,1.1l5.1,5.1
		c0.3,0.3,0.8,0.3,1.1,0l11.5-11.5C-129.5-169.7-128.1-172.8-128.3-176.6z M-129.4-176c0,2.1-0.4,3.7-0.7,4.6l-3.9-3.9
		C-133.1-175.7-131.5-176.1-129.4-176z M-141.7-159.1l-4.6-4.6l11-11l4.6,4.6L-141.7-159.1z"/>
	<path fill="#FFFFFF" d="M-151.3-169.5l4.1,4.1l6.1-6.1l-8.3,0.2L-151.3-169.5z M-148.9-170.2l5-0.1l-3.3,3.3l-2.4-2.4L-148.9-170.2
		z"/>
	<path fill="#FFFFFF" d="M-133.9-164.4l-6.1,6.1l4.1,4.1l1.9-1.9L-133.9-164.4z M-136-155.8l-2.4-2.4l3.3-3.3l-0.1,5L-136-155.8z"/>
	<path fill="#FFFFFF" d="M-142.9-157.9l-4.6-4.6c-0.3-0.3-0.8-0.3-1.1,0l-0.9,0.9c-0.3,0.3-0.3,0.8,0,1.1l4.6,4.6
		c0.3,0.3,0.8,0.3,1.1,0l0.9-0.9C-142.6-157.2-142.6-157.6-142.9-157.9z M-144.4-157l-4.1-4.1l0.4-0.4l4.1,4.1L-144.4-157z"/>
	<path fill="#FFFFFF" d="M-138.6-166.8c0.8,0.8,2.5,0.5,3.8-0.9c1.3-1.3,1.7-3,0.9-3.8c-0.8-0.8-2.5-0.5-3.8,0.9
		C-139.1-169.3-139.4-167.7-138.6-166.8z M-134.7-170.7c0.3,0.3,0.1,1.3-0.9,2.2c-0.9,0.9-1.9,1.1-2.2,0.9c-0.3-0.3-0.1-1.3,0.9-2.2
		C-136-170.8-135-171-134.7-170.7z"/>
</g>
<path fill="#FFFFFF" d="M-131.9,55.5c0.7-0.2,1.3-0.5,1.8-0.7c2.6-1.1,3.9-2.4,3.7-3.7c-0.3-1.8-3.4-2.6-7-2.7
	c1-3.7,1.1-6.9-0.5-7.6c-2.1-1-5.5,2.7-8.1,7.2c-2.4-1.6-4.6-2.8-6.4-3.6c-2.2-0.9-3.3-1.1-3.8-0.4c-0.5,0.7,0,1.7,1.5,3.4
	c0.8,0.9,1.8,1.9,3.1,3c-3.2,1.1-5.8,2.6-5.5,4.4c0.2,1.2,1.7,2.1,4.5,2.5c0.8,0.1,1.6,0.2,2.5,0.2c-1,3.6-1.1,6.9,0.5,7.6
	c0.2,0.1,0.5,0.2,0.7,0.2c2.1,0,4.9-3.3,7.3-7.4c2.3,1.5,4.4,2.6,6,3.4c1.4,0.6,2.4,1,3.1,1c0.5,0,0.8-0.1,1-0.4
	c0.5-0.7-0.1-1.9-1.8-3.8C-130,57.3-130.9,56.4-131.9,55.5z M-127.4,51.3c0.1,0.6-0.7,1.6-3.1,2.7c-0.7,0.3-1.5,0.6-2.3,0.9
	c-0.6-0.5-1.3-1.1-2-1.7c0.3-0.5,0.5-1.1,0.5-1.8c0-0.1,0-0.2,0-0.3c0.2-0.6,0.4-1.2,0.6-1.7C-129.7,49.5-127.5,50.3-127.4,51.3z
	 M-142,49.5c0.1,0,0.2,0,0.2,0c1,0.1,1.8,0.8,2,1.8c-1.3,0-2.4,0.8-2.9,1.9c-0.6-0.4-1.1-0.9-1.7-1.3c0,0,0-0.1,0-0.1
	C-144.3,50.5-143.3,49.5-142,49.5z M-139.6,52.3c1.3,0,2.3,1,2.3,2.3c0,0.5-0.2,1-0.5,1.4c-0.3,0-0.6,0.1-0.9,0.1
	c-0.8-0.5-1.5-1-2.3-1.6c-0.3-0.2-0.6-0.4-0.9-0.7C-141.5,53-140.6,52.3-139.6,52.3z M-135.3,51c-0.3,0.7-0.6,1.5-0.9,2.2
	c-0.1,0.1-0.3,0.2-0.4,0.2c-0.4-0.9-1.2-1.7-2.2-2c-0.1-0.6-0.3-1.1-0.6-1.6c0.4-0.5,1.1-0.9,1.8-0.9C-136.4,49-135.4,49.9-135.3,51
	z M-135,49.3c0.1,0,0.2,0,0.3,0c0,0.1-0.1,0.2-0.1,0.3C-134.8,49.5-134.9,49.4-135,49.3z M-145.7,50.8c0.2-0.1,0.4-0.1,0.6-0.2
	c-0.1,0.2-0.1,0.4-0.2,0.6C-145.3,51.1-145.5,51-145.7,50.8z M-144,54.4c0.3,0.3,0.7,0.5,1.2,0.6c0.1,0.6,0.3,1.1,0.6,1.6
	c-0.9,0.1-1.7,0.1-2.6,0.1C-144.6,55.9-144.3,55.1-144,54.4z M-141.9,55c0.1,0.1,0.3,0.2,0.4,0.3c0.5,0.3,0.9,0.7,1.4,1
	c-0.3,0-0.7,0.1-1,0.1C-141.5,56.1-141.8,55.6-141.9,55z M-135.9,54.8c0.2-0.3,0.3-0.7,0.5-1c0.5,0.4,1.1,0.8,1.5,1.3
	c-0.8,0.2-1.6,0.4-2.4,0.6C-136.2,55.4-136,55.1-135.9,54.8z M-134.3,41.6c0.5,0.3,1,1.5,0.5,4.1c-0.1,0.8-0.3,1.7-0.6,2.6
	c-0.6,0-1.2,0-1.7,0c-0.4-0.2-0.9-0.3-1.4-0.3c-1,0-1.9,0.4-2.5,1.1c-0.4-0.3-0.8-0.5-1.2-0.6C-138.4,43.6-135.5,41.1-134.3,41.6z
	 M-149.8,47c-1.5-1.7-1.6-2.3-1.6-2.4c0.1,0,0.7-0.2,2.9,0.8c1.6,0.7,3.6,1.8,5.8,3.3c-0.7,0.1-1.3,0.4-1.7,0.9l0,0
	c-0.7,0.2-1.4,0.4-2.1,0.6C-147.8,48.9-148.9,47.9-149.8,47z M-148.4,56.4c-2.6-0.4-3.6-1.1-3.7-1.7c-0.1-0.9,1.7-2.3,5.4-3.5
	c0.5,0.4,1,0.8,1.5,1.2c0,0,0.1,0,0.1,0.1c0.1,0.4,0.2,0.8,0.4,1.1c-0.4,1-0.8,2-1.1,3C-146.8,56.6-147.6,56.5-148.4,56.4z
	 M-141.7,62.1c-1.8,2-3,2.4-3.5,2.2c-0.9-0.4-1-3,0.1-6.7c0.1,0,0.2,0,0.3,0c1.1,0,2.3-0.1,3.5-0.2c0.5,0.3,1.1,0.5,1.7,0.5
	c0.4,0,0.8-0.1,1.2-0.2C-139.5,59.4-140.6,61-141.7,62.1z M-131.4,60.4c-1.6-0.7-3.6-1.9-5.7-3.3c0.1-0.1,0.1-0.2,0.2-0.4
	c1.4-0.3,2.7-0.6,3.9-0.9c1.1,1,2.1,1.9,2.9,2.7c1.9,2,2,2.7,1.9,2.8C-128.3,61.4-128.9,61.5-131.4,60.4z"/>
<path fill="#FFFFFF" d="M-128.3,215L-128.3,215l-21.4,4.5c-0.6,0-1.1,0.3-1.4,0.6c-0.1-0.5-0.3-0.9-1-0.9h-0.3
	c-1.1,0-1.1,0.7-1.1,1.6v6.9c0,0.9,0,1.6,1.1,1.6h0.3c0.8,0,1-0.4,1.1-1.1c0.3,0.3,0.7,0.5,1.1,0.6l-0.6,2.1c-0.3,1,0.3,2.1,1.3,2.4
	l9.9,3.1c0.2,0.1,0.4,0.1,0.6,0.1c0.8,0,1.6-0.5,1.8-1.3l1-3.2l7.7,1.7h0.1c1.2,0,2.2-1.1,2.2-2.4v-14
	C-126.1,216.1-127.1,215-128.3,215z M-150.6,226.6v-4.8c0-0.6,0.4-1.2,1-1.2h0.1l3.6-0.8v8.6l-3.6-0.8h-0.1
	C-150.1,227.8-150.6,227.3-150.6,226.6z M-138.2,234.9c-0.1,0.2-0.2,0.3-0.3,0.4c-0.2,0.1-0.4,0.1-0.5,0l-9.9-3.1
	c-0.4-0.1-0.6-0.5-0.5-0.9l0.7-2.2l11.5,2.5L-138.2,234.9z M-127.3,231.3c0,0.6-0.4,1.1-0.9,1.2l-16.5-3.6v-9.1l16.5-3.5
	c0.5,0,0.9,0.5,0.9,1.2V231.3z"/>
<g>
	<g>
		<path fill="#FFFFFF" d="M-132.2-112.7l-1.3,3.5c-0.3-0.4-0.7-0.8-1.1-1.1l1.1-2.9c0.8-2.1-0.3-4.5-2.5-5.2
			c-2.1-0.7-4.4,0.4-5.1,2.5l-2.6,6.9c-0.8,2.1,0.3,4.4,2.4,5.2c0.9,0.3,1.9,0.3,2.8,0c0,0,0.4-0.1,0.7-0.3c0.2,0,0.3,0.1,0.3,0.3
			l-0.5,1.3c0,0,0,0,0,0c-1.2,0.4-2.5,0.4-3.7,0c-2.8-1.1-4.2-4.2-3.2-7l2.6-6.9c1.1-3,4.4-4.4,7.3-3.2
			C-132.5-118.4-131.2-115.4-132.2-112.7z"/>
	</g>
	<path fill="#FFFFFF" d="M-134.5-102.7l-2.5,6.8l-0.1,0.2c-1,2.7-4,4.1-6.7,3.3c-3-0.9-4.6-4.2-3.4-7.2l1.4-3.7
		c0.3,0.4,0.7,0.8,1.1,1.1c-0.1,0.1-0.1,0.3-0.1,0.3L-146-99c-0.1,0.2-0.1,0.4-0.2,0.6c-0.4,1.9,0.6,3.9,2.4,4.6
		c1.4,0.6,3,0.3,4.1-0.6c0,0,0,0,0,0c0.5-0.4,1-1,1.2-1.7l0.2-0.5l2.5-6.7c0.7-2-0.2-4.2-2.2-4.9c-1.9-0.7-3-0.2-3.9,0.2l0.6-1.7
		c1.1-0.3,2.4-0.3,3.5,0.1c1.8,0.7,3,2.1,3.4,3.8C-134-104.8-134.1-103.7-134.5-102.7z"/>
</g>
<path fill="#FFFFFF" d="M25,0.5C11.5,0.5,0.5,11.5,0.5,25s11,24.5,24.5,24.5s24.5-11,24.5-24.5S38.5,0.5,25,0.5z M27.4,34.6l7,7
	c-2.1,1.2-4.5,2-7,2.3V34.6z M22.4,43.9c-2.5-0.3-4.9-1.2-7.1-2.4l7.1-7.1V43.9z M38.4,38.6l-11-11V17.2h7.1L25,7.7l0,0l0,0
	l-9.5,9.5h7v10.2l-11,11C8,35,5.9,30.2,5.9,25C5.9,14.5,14.5,5.9,25,5.9S44.1,14.5,44.1,25C44.1,30.3,41.9,35.1,38.4,38.6z"/>
</svg>
