<?xml version="1.0" encoding="utf-8"?>
<!-- Generator: Adobe Illustrator 18.1.1, SVG Export Plug-In . SVG Version: 6.00 Build 0)  -->
<svg version="1.1" id="Layer_1" xmlns="http://www.w3.org/2000/svg" xmlns:xlink="http://www.w3.org/1999/xlink" x="0px" y="0px"
	 viewBox="0 0 810 100" enable-background="new 0 0 810 100" xml:space="preserve">
<g>
	<path fill="#FFFFFF" d="M52.1,81.3H38.6L27,59.1h-8.4v22.1H7V34.4c0-4.5,1-7.7,3.1-9.8c2.1-2,5.5-3.1,10.4-3.1h9.9
		c5.9,0,10.6,1.8,14.1,5.4c3.5,3.6,5.2,8.2,5.2,13.7c0,4-1,7.5-3.1,10.4s-4.7,5-7.8,6.1L52.1,81.3z M35.7,46.9
		c1.6-1.7,2.4-3.8,2.4-6.4c0-2.5-0.8-4.6-2.3-6.2c-1.5-1.6-3.6-2.3-6.2-2.3h-5.8c-3.5,0-5.2,1.8-5.2,5.3v12.1h11
		C32,49.4,34.1,48.6,35.7,46.9z"/>
	<path fill="#FFFFFF" d="M101,81.3H79.9c-6.7,0-11.4-1.2-14.1-3.5c-2.7-2.3-4.1-6.4-4.1-12.3V21.6H101V32H73.4v14h19.4l-0.8,10.4
		H73.4v8.3c0,2.3,0.5,4,1.6,4.9c1.1,0.9,3,1.3,5.8,1.3H101V81.3z"/>
	<path fill="#FFFFFF" d="M153.9,21.6l-18.8,56.3c-1,2.6-2.8,3.9-5.4,3.9c-2.7,0-4.5-1.3-5.5-3.9l-18.5-56.3h12.1l12,38.9l12-38.9
		H153.9z"/>
	<path fill="#FFFFFF" d="M204.9,48.7v4.5c0,10-1.9,17.3-5.7,21.8s-9.8,6.8-18.1,6.8c-8.3,0-14.3-2.3-18.1-6.8
		c-3.7-4.5-5.6-11.9-5.6-22v-4.4c0-9.3,1.9-16.2,5.7-20.7s9.7-6.8,17.9-6.8c8.2,0,14.2,2.3,18.1,6.9
		C202.9,32.5,204.9,39.4,204.9,48.7z M193.2,52.9v-3.1c0-5.4-0.7-9.6-2-12.8c-1.6-3.7-4.9-5.5-10.1-5.5c-5.2,0-8.6,1.8-10.1,5.5
		c-1.3,3-1.9,7.3-1.9,12.8v3.1c0,7.2,1,12.1,3,14.6c0.8,1.1,1.9,2,3.5,2.7c1.5,0.8,3.4,1.1,5.5,1.1c2.1,0,4-0.4,5.5-1.1
		c1.5-0.7,2.7-1.6,3.5-2.7c0.8-1.1,1.5-2.5,1.9-4.2C192.8,60.7,193.2,57.2,193.2,52.9z"/>
	<path fill="#FFFFFF" d="M251.9,81.3h-17.8c-6.7,0-11.5-1.3-14.5-3.9c-3-2.6-4.5-6.8-4.5-12.7V21.6h11.6v43.1c0,2.3,0.5,4,1.6,4.9
		c1.1,0.9,3,1.3,5.8,1.3h17.8V81.3z"/>
	<path fill="#FFFFFF" d="M305,21.6v39.2c0,6.5-2.2,11.6-6.6,15.3c-4.4,3.7-9.8,5.6-16.2,5.6c-6.4,0-11.8-1.9-16.2-5.6
		c-4.4-3.7-6.6-8.9-6.6-15.3V21.6h11.6v38.8c0,3.7,1,6.4,3.1,8.3c2,1.8,4.7,2.7,8.1,2.7s6.1-0.9,8.1-2.7c2.1-1.8,3.1-4.6,3.1-8.3
		V21.6H305z"/>
	<path fill="#FFFFFF" d="M355.9,32h-16v49.3h-11.6V32h-15.9V21.6h43.6V32z"/>
	<path fill="#FFFFFF" d="M376.6,81.3H365V21.6h11.6V81.3z"/>
	<path fill="#FFFFFF" d="M434.3,48.7v4.5c0,10-1.9,17.3-5.7,21.8c-3.8,4.5-9.8,6.8-18.1,6.8c-8.3,0-14.3-2.3-18.1-6.8
		c-3.7-4.5-5.6-11.9-5.6-22v-4.4c0-9.3,1.9-16.2,5.7-20.7s9.7-6.8,17.9-6.8s14.2,2.3,18.1,6.9C432.3,32.5,434.3,39.4,434.3,48.7z
		 M422.6,52.9v-3.1c0-5.4-0.7-9.6-2-12.8c-1.6-3.7-4.9-5.5-10.1-5.5c-5.2,0-8.6,1.8-10.1,5.5c-1.3,3-1.9,7.3-1.9,12.8v3.1
		c0,7.2,1,12.1,3,14.6c0.8,1.1,1.9,2,3.5,2.7c1.5,0.8,3.4,1.1,5.5,1.1s4-0.4,5.5-1.1c1.5-0.7,2.7-1.6,3.5-2.7
		c0.8-1.1,1.5-2.5,1.9-4.2C422.2,60.7,422.6,57.2,422.6,52.9z"/>
	<path fill="#FFFFFF" d="M491,21.6v53.6c0,1.8-0.6,3.4-1.7,4.7c-1.1,1.3-2.4,2-3.9,2c-3.9,0-7-2.2-9.5-6.7L455.3,43v38.3h-11.6V21.6
		h11.2l24.5,39v-39H491z"/>
	<path fill="#FFFFFF" d="M566.3,21.6v39.2c0,6.5-2.2,11.6-6.6,15.3c-4.4,3.7-9.8,5.6-16.2,5.6c-6.4,0-11.8-1.9-16.2-5.6
		c-4.4-3.7-6.6-8.9-6.6-15.3V21.6h11.6v38.8c0,3.7,1,6.4,3.1,8.3c2,1.8,4.7,2.7,8.1,2.7s6.1-0.9,8.1-2.7c2.1-1.8,3.1-4.6,3.1-8.3
		V21.6H566.3z"/>
	<path fill="#FFFFFF" d="M625,21.6v53.6c0,1.8-0.6,3.4-1.7,4.7c-1.1,1.3-2.4,2-3.9,2c-3.9,0-7-2.2-9.5-6.7L589.3,43v38.3h-11.6V21.6
		h11.2l24.5,39v-39H625z"/>
	<path fill="#FFFFFF" d="M648.7,81.3H637V21.6h11.6V81.3z"/>
	<path fill="#FFFFFF" d="M701.4,32h-16v49.3h-11.6V32h-15.9V21.6h43.6V32z"/>
	<path fill="#FFFFFF" d="M749.7,81.3h-21.1c-6.7,0-11.4-1.2-14.1-3.5c-2.7-2.3-4.1-6.4-4.1-12.3V21.6h39.3V32h-27.7v14h19.4
		l-0.8,10.4h-18.5v8.3c0,2.3,0.5,4,1.6,4.9c1.1,0.9,3,1.3,5.8,1.3h20.3V81.3z"/>
	<path fill="#FFFFFF" d="M806.1,51.2l0.1,6.5c-0.2,4.1-0.7,7.5-1.5,10.3c-0.8,2.8-2.3,5.3-4.6,7.6c-3.8,3.8-9.3,5.7-16.6,5.7
		c-8.5,0-14.4-1.1-17.6-3.4c-3.2-2.3-4.8-6.4-4.8-12.3v-44h23.2c6.7,0,12,1.9,15.8,5.7c3.1,3.1,4.9,6.8,5.4,11.2
		C805.9,41.6,806.1,45.9,806.1,51.2z M794,61.9c0.3-2.3,0.5-5.8,0.5-10.6c0-4.8-0.2-8.3-0.5-10.4c-0.3-2.1-1-3.9-2.1-5.2
		c-2-2.5-4.9-3.7-8.7-3.7h-10.5v33c0,2.2,0.8,3.8,2.3,4.6s4.2,1.3,8.1,1.3c3.9,0,6.8-1.2,8.8-3.7C793,65.9,793.7,64.1,794,61.9z"/>
</g>
</svg>
