<?xml version="1.0" encoding="utf-8"?>
<!-- Generator: Adobe Illustrator 18.1.1, SVG Export Plug-In . SVG Version: 6.00 Build 0)  -->
<svg version="1.1" id="Layer_1" xmlns="http://www.w3.org/2000/svg" xmlns:xlink="http://www.w3.org/1999/xlink" x="0px" y="0px"
	 viewBox="0 0 150 150" enable-background="new 0 0 150 150" xml:space="preserve">
<g>
	<path fill="#131313" d="M-6.7,5.8c-24.5,0-44.5-19.2-44.5-42.9c0-0.6,0-1.1,0-1.7c0-0.5-0.1-2.1-0.1-3.8h0l0-2.1c0-0.3,0-0.6,0-0.9
		c0-0.1,0-0.2,0-0.3l0-0.6v-51c0-7.1,5.7-12.8,12.8-12.8c2.5,0,4.9,0.7,6.9,2v-7.1c0-7.1,5.7-12.8,12.8-12.8c2.6,0,5,0.8,7,2.1
		C-10.9-132.2-5.5-137,1-137c6.5,0,11.8,4.8,12.7,11.1c2-1.3,4.4-2.1,7-2.1c5.8,0,10.7,3.9,12.3,9.1h0.5l0,3.6c0,0,0,0.1,0,0.1v60.9
		l11.6-12.8l0.4,0.4c2-1.2,4.3-1.8,6.6-1.8c3.2,0,6.2,1.2,8.6,3.3c4.3,3.9,5.3,10,3,15l0.4,0.4l-2.4,2.7c0,0,0,0.1-0.1,0.1l-0.1,0.1
		L27-9.1c-0.2,0.2-0.4,0.4-0.6,0.7L23-4.7l-0.5,0C14.5,2.1,4.1,5.8-6.7,5.8z M-43.6-50.2L-43.6-50.2l0,3.9c0,0.3,0,0.6,0,0.8
		c0,2.2,0.1,6.6,0.1,6.7l0,0.1l0,0.1c0,0.5,0,1,0,1.5C-43.5-17.6-27-1.8-6.7-1.8c9.5,0,18.5-3.5,25.4-9.7l1.2-1.1l0.9-1
		c0.2-0.2,0.4-0.4,0.5-0.6l31.9-35.1l0,0l2.8-3c1.9-2.1,1.7-5.3-0.4-7.2c-0.9-0.9-2.2-1.3-3.4-1.3c-1.5,0-2.8,0.6-3.8,1.7l-0.1,0.1
		l-2.6,2.9l0,0L33.5-42.9v0.4h-0.3l-7.6,8.4l0.2-10.3c0-0.3,0-0.7,0-1c0-0.3,0-0.6,0-0.8l-0.1-3.9h0.1v-61.1h0l0-4
		c0-2.8-2.3-5.1-5.1-5.1c-2.8,0-5.1,2.3-5.1,5.1l0,0.1l0.1,3.9h-0.1v53.1H6.1v-66.1c0-2.8-2.3-5.1-5.1-5.1c-2.8,0-5.1,2.3-5.1,5.1
		v66.1h-9.5v-57.1c0-2.8-2.3-5.1-5.1-5.1c-2.8,0-5.1,2.3-5.1,5.1v57.1h-9.5v-39.2c0-2.8-2.3-5.1-5.1-5.1c-2.8,0-5.1,2.3-5.1,5.1
		V-50.2z"/>
</g>
<g>
	<path fill="#131313" d="M61.5-78c0.7,2,2.7,3.4,4.8,3.4c0.6,0,1.2-0.1,1.8-0.3l16.2-5.9c2.7-1,4-3.9,3.1-6.6l-4.4-12.1
		c-0.7-2-2.7-3.4-4.8-3.4c-0.6,0-1.2,0.1-1.8,0.3l-16.2,5.9c-2.7,1-4,3.9-3.1,6.6L61.5-78z M76.7-94.9l2.9,7.9l-12,4.4l-2.9-7.9
		L76.7-94.9z"/>
	<path fill="#131313" d="M58.8-78.3l-3-8.1c-0.8-2.3-3-3.8-5.4-3.8c-0.7,0-1.3,0.1-2,0.4l-11.5,4.2c-1.4,0.5-2.6,1.6-3.3,3
		c-0.1,0.1-0.1,0.3-0.2,0.4c-0.4-0.5-1.1-0.7-1.7-0.4c-0.8,0.3-1.2,1.2-0.9,2l5,13.5c0.3,0.8,1.2,1.2,2,0.9c0.5-0.2,0.8-0.6,1-1
		c0.9,0.6,2,0.9,3.1,0.9c0.7,0,1.3-0.1,2-0.4l11.5-4.2C58.3-72,59.9-75.3,58.8-78.3z M42.8-74.1l-1.9-5.1l8.5-3.1l1.9,5.1L42.8-74.1
		z"/>
	<path fill="#131313" d="M146.9-103.4l-9.8-26.8c-0.4-1.2-1.8-1.8-3-1.4l-0.6,0.2c-1.2,0.4-1.8,1.8-1.4,3l0,0.1
		c-0.2,0-0.4,0.1-0.6,0.2l-44,16.1c-1.4,0.5-2.6,1.6-3.2,3c-0.6,1.4-0.7,2.9-0.2,4.4l5.9,16.3c0.8,2.2,3,3.7,5.4,3.7
		c0.7,0,1.3-0.1,2-0.3l44-16.1c0.2-0.1,0.4-0.2,0.6-0.3c0.5,1.1,1.8,1.6,2.9,1.2l0.6-0.2C146.7-100.8,147.3-102.2,146.9-103.4z
		 M96.4-92.5l-4.8-13.1l40.8-14.9l4.8,13.1L96.4-92.5z"/>
	<path fill="#131313" d="M47.3,0.5h7L75.9-41V0.5h7.4V-41l21.6,41.5h7l1-0.5L85.9-51.8l8.3-0.1l0.6-0.2c3.8-1.4,5.8-5.7,4.4-9.5
		l-4.7-12.7c-1.1-2.9-3.9-4.9-7-4.9c-0.9,0-1.7,0.2-2.5,0.5l-18.8,6.9c-4.3,1.6-4.6,4.6-4.6,8.2l-0.2,6.8l0.2,0.7
		c1.7,4.6,5.5,4.6,8.2,4.6h0l3.2,0L46.2,0L47.3,0.5z M69.8-58.9c-0.4,0-0.7,0-1,0l0.2-4.5l0-0.1c0-0.7,0-1.1,0-1.4l18.6-6.8
		l4.6,12.5L69.8-58.9z"/>
</g>
<g>
	<path fill="#131313" d="M151.4-78.6c-11.3-0.9-21.5,3.5-28.6,10.9V-119h-9.5v70.6c-0.6,3.8-0.5,7.8,0.2,11.9
		c3,16.1,16.8,28.2,33.1,29c21.3,1.1,38.8-16.5,37.5-37.8C183-62.9,169-77.2,151.4-78.6z M150.2-17c-13.6,0.9-25.2-8.8-27.5-21.6v-9
		c2.1-12.3,12.9-21.6,25.7-21.6c15,0,27,12.7,26.1,27.9C173.7-28.4,163.2-17.9,150.2-17z"/>
	<path fill="#131313" d="M148.5-102.7c-6.1,0-12,0.9-17.7,2.7c-0.9,0.3-1.5,1.1-1.5,2.1v7.8l0.3,0.7c6-2.5,12.4-3.7,18.9-3.7
		c26.3,0,47.8,20,49.9,46c0.1,1.1,1.1,2,2.2,2l5.2-0.2c1.2-0.1,2.2-1.1,2.1-2.3C205.5-78.8,179.8-102.7,148.5-102.7z"/>
	<path fill="#131313" d="M204.7-100.9c-15.1-14.7-35.1-22.8-56.2-22.8c-6.1,0-12.1,0.7-17.9,2c-0.8,0.2-1.3,0.9-1.3,1.6v6.4
		c0,1.1,1,1.9,2.1,1.6c5.6-1.4,11.3-2.1,17.1-2.1c38.2,0,69.1,29.4,71,67.3c0,0.9,0.8,1.6,1.7,1.6l6.2-0.2c0.9,0,1.7-0.8,1.6-1.7
		C228-67.6,219.4-86.6,204.7-100.9z"/>
</g>
<g>
	<g>
		<circle fill="#131313" cx="235.8" cy="-80.6" r="12.1"/>
	</g>
	<g>
		<circle fill="#131313" cx="270.2" cy="-80.6" r="12.1"/>
	</g>
	<g>
		<path fill="#131313" d="M280.4,5.8c-10.1,0-21.5-1.8-33.8-5.4c-16.3-4.8-30.1-5.2-40.6-1.4l-5.2,1.9v-85.7
			c0-28.8,23.4-52.3,52.3-52.3s52.3,23.4,52.3,52.3v86l-2.5,0.9C296.2,4.6,288.7,5.8,280.4,5.8z M221.9-11.3
			c8.1,0,17.1,1.4,26.8,4.3c19.5,5.7,36.2,6.6,48.9,2.8v-80.6c0-24.6-20-44.6-44.6-44.6c-24.6,0-44.6,20-44.6,44.6v75
			C212.6-10.8,217.1-11.3,221.9-11.3z"/>
	</g>
</g>
<g>
	<path fill="#131313" d="M-96-124l-0.1-2.8l-2.8-0.1c-20.4-0.7-36.9,6.4-37.7,7.2l-61.4,61.4c-1.6,1.6-1.6,4.3,0,5.9l27.5,27.5
		c1.6,1.6,4.3,1.6,5.9,0l61.4-61.4C-102.4-87.2-95.1-103.6-96-124z M-101.9-121c0.1,11.1-2.1,19.7-3.7,24.4l-20.7-20.7
		C-121.6-118.8-113-121-101.9-121z M-167.5-30.6l-24.8-24.8l58.7-58.7l24.8,24.8L-167.5-30.6z"/>
	<path fill="#131313" d="M-218.7-85.8l21.6,21.6l32.7-32.7l-44.4,1.2L-218.7-85.8z M-206.2-89.7l26.9-0.7l-17.7,17.7l-13.1-13.1
		L-206.2-89.7z"/>
	<path fill="#131313" d="M-126-58.5l-32.7,32.7l21.6,21.6l9.9-9.9L-126-58.5z M-137.1-12.8l-13.1-13.1l17.7-17.7l-0.7,26.9
		L-137.1-12.8z"/>
	<path fill="#131313" d="M-174.2-24.3l-24.5-24.5c-1.6-1.6-4.2-1.6-5.7,0l-5,5c-1.6,1.6-1.6,4.2,0,5.7l24.5,24.5
		c1.6,1.6,4.2,1.6,5.7,0l5-5C-172.6-20.1-172.6-22.7-174.2-24.3z M-182-19.3l-21.6-21.6l2.1-2.1l21.6,21.6L-182-19.3z"/>
	<path fill="#131313" d="M-151.2-71.8c4.5,4.5,13.2,2.5,20.3-4.7c7.1-7.1,9.1-15.9,4.7-20.3c-4.5-4.5-13.2-2.5-20.3,4.7
		C-153.6-85-155.6-76.2-151.2-71.8z M-130.4-92.5c1.5,1.5,0.4,6.8-4.7,11.8c-5,5-10.3,6.1-11.8,4.7c-1.5-1.5-0.4-6.8,4.7-11.8
		C-137.2-92.8-131.9-93.9-130.4-92.5z"/>
</g>
<path fill="#131313" d="M116.8,88.6c3.5-1.2,6.8-2.5,9.8-3.8c13.8-6.1,20.6-12.9,19.7-19.5c-1.3-9.8-18.3-13.9-37.4-14.7
	c5.5-19.9,6-36.6-2.6-40.8C94.9,4.3,77.1,24.3,63.2,48.2c-13-8.4-24.7-14.9-34-19c-11.5-5-17.8-5.7-20.3-2.1
	c-2.5,3.5-0.1,9.1,8,18.2c4.2,4.8,9.8,10.2,16.4,16.1c-17,5.8-30.7,14-29.5,23.4C4.6,91.5,13,96.1,28,98.3c4.1,0.6,8.5,1,13.2,1.2
	c-5.4,19.4-6.1,36.6,2.6,40.8c1.2,0.6,2.6,0.9,4,0.9c11,0,26.3-17.6,39.1-39.3c12.1,7.8,23.3,14.1,32.3,18.2
	c7.5,3.4,13,5.1,16.8,5.1c2.5,0,4.2-0.8,5.3-2.2c2.7-3.8-0.3-10-9.8-20.3C127.4,98.4,122.5,93.6,116.8,88.6z M141.2,65.9
	c0.4,3.1-3.7,8.4-16.7,14.2c-3.7,1.6-7.8,3.2-12.2,4.6c-3.4-2.9-7-5.9-10.8-8.9c1.8-2.7,2.8-6,2.8-9.5c0-0.5,0-0.9-0.1-1.3
	c1.1-3.1,2.2-6.2,3.1-9.3C128.6,56.3,140.5,61,141.2,65.9z M63.1,56.6c0.3,0,1.1,0.1,1.1,0.1c5.4,0.5,9.8,4.4,10.9,9.7
	c-6.8,0.2-12.7,4.4-15.3,10.3c-3.1-2.3-6.1-4.7-9-7c0-0.3,0-0.5,0-0.8C50.9,62.1,56.4,56.6,63.1,56.6z M75.8,71.5
	C82.5,71.5,88,77,88,83.8c0,2.7-0.9,5.3-2.4,7.3c-1.5,0.3-3,0.5-4.6,0.7c-4-2.7-8.1-5.6-12.1-8.5c-1.6-1.2-3.2-2.4-4.8-3.5
	C65.8,75,70.4,71.5,75.8,71.5z M99,64.3c-1.4,3.9-3.1,7.8-4.8,11.8c-0.7,0.5-1.4,1-2.2,1.3c-2-5-6.2-9-11.5-10.4
	c-0.3-3.1-1.5-6-3.2-8.4c2.3-2.9,5.8-4.6,9.6-4.6C93,54,98.1,58.5,99,64.3z M100.6,55.5c0.5,0,1,0,1.5,0c-0.2,0.5-0.3,1-0.5,1.4
	C101.3,56.5,100.9,56,100.6,55.5z M43.5,63.6c1.1-0.3,2.2-0.6,3.3-0.9c-0.4,1-0.6,2-0.8,3C45.2,65,44.3,64.3,43.5,63.6z M52.2,82.5
	c1.8,1.4,3.9,2.5,6.2,3.2c0.3,3.1,1.5,6,3.2,8.4c-4.7,0.3-9.3,0.5-13.7,0.5C49.2,90.7,50.6,86.7,52.2,82.5z M63.7,85.9
	c0.8,0.6,1.5,1.1,2.3,1.7c2.5,1.8,5,3.6,7.5,5.3c-1.8,0.2-3.5,0.4-5.2,0.6C65.9,91.6,64.2,88.9,63.7,85.9z M95.8,84.9
	c0.8-1.7,1.7-3.5,2.4-5.3c2.8,2.3,5.6,4.5,8.3,6.8c-4.1,1.2-8.5,2.2-13,3.2C94.3,88.1,95,86.5,95.8,84.9z M104,14.4
	c2.9,1.4,5.1,7.9,2.8,22c-0.7,4.4-1.8,9.1-3.2,14.1c-3.1,0-6.2,0-9.2,0.1c-2.3-1.1-4.8-1.7-7.5-1.7c-5.1,0-9.9,2.2-13.2,6.1
	c-2-1.5-4.2-2.5-6.7-3.1C82.4,25,97.9,11.5,104,14.4z M21.6,42.9C13.4,34,13,30.8,13,30.1c0.6-0.2,3.9-0.9,15.4,4.3
	c8.6,3.9,19.3,9.9,31,17.4c-3.5,0.8-6.8,2.1-9.1,4.7l0,0c-3.8,0.9-7.6,1.9-11.4,3.1C31.9,53.5,26,47.9,21.6,42.9z M28.7,93.2
	c-14-2.1-19.5-6.1-19.9-9.1C8.1,79.3,18,71.7,37.7,65.4c2.5,2.2,5.2,4.4,7.9,6.6c0.2,0.1,0.3,0.3,0.5,0.4c0.4,2.1,1.2,4.1,2.3,5.8
	c-2.2,5.4-4.1,10.8-5.8,16.2C37.6,94.2,33,93.9,28.7,93.2z M64.8,124c-9.5,10.6-16,13-18.9,11.6c-4.8-2.3-5.3-15.9,0.4-36
	c0.5,0,1.1,0,1.6,0c6,0,12.3-0.3,18.8-0.9c2.6,1.5,5.6,2.4,8.9,2.4c2.2,0,4.3-0.4,6.2-1.1C76.4,109.4,70.6,117.7,64.8,124z
	 M119.9,114.7c-8.5-4-19.2-10.1-30.5-17.4c0.4-0.6,0.7-1.3,1.1-1.9c7.3-1.4,14.3-3.1,20.7-5c6,5.2,11.3,10.2,15.4,14.6
	c10,10.5,10.4,14.2,10.4,14.8C136.3,120.1,132.8,120.8,119.9,114.7z"/>
<path fill="#131313" d="M478.6-123.1h-0.3l-113.9,24c-3,0.1-5.6,1.4-7.7,3.4c-0.3-2.8-1.5-4.7-5.5-4.7h-1.4c-6,0-5.7,3.9-5.7,8.6
	v36.8c0,4.8,0,8.6,5.7,8.6h1.4c4.4,0,5.4-2.3,5.6-5.6c1.6,1.6,3.7,2.8,6,3.2l-3.4,11c-1.7,5.4,1.3,11.1,6.7,12.7l52.8,16.4
	c1,0.3,2,0.5,3,0.5c4.3,0,8.4-2.8,9.7-7.2l5.4-17.2l41.3,9.1h0.3c6.4,0,11.7-5.6,11.7-12.6v-74.5C490.3-117.4,485-123.1,478.6-123.1
	z M359.4-61v-25.5c0-3.4,2.4-6.2,5.3-6.2h0.3l19.2-4.1v46.1L365-54.9h-0.3C361.8-54.9,359.4-57.6,359.4-61z M425.5-17.2
	c-0.3,1-1,1.8-1.9,2.2c-0.9,0.5-1.9,0.6-2.9,0.3l-52.8-16.4c-2-0.6-3.1-2.7-2.5-4.7l3.6-11.6l61.6,13.5L425.5-17.2z M483.9-36
	c0,3.3-2.2,6-5,6.2l-88.2-19.4v-48.8l88.2-18.6c2.8,0.2,5,2.9,5,6.2V-36z"/>
<g>
	<g>
		<path fill="#131313" d="M375.3-100.9l-6.9,18.6c-1.7-2.2-3.6-4.2-5.9-5.8l5.8-15.4c4.2-11.3-1.7-24.1-13.3-28
			c-11.1-3.8-23.2,2.3-27.4,13.3l-13.8,37.1c-4.2,11.2,1.5,23.6,12.7,27.8c4.8,1.8,10,1.8,14.8,0.1c0,0,2.2-0.7,3.8-1.3
			c0.9-0.3,1.7,0.5,1.3,1.3l-2.6,7c0,0-0.1,0-0.1,0.1c-6.5,2.3-13.6,2.2-20-0.1c-15-5.7-22.6-22.4-17-37.4l13.8-37
			c5.9-15.9,23.7-23.8,39.1-17C373.8-131.5,380.7-115.3,375.3-100.9z"/>
	</g>
	<path fill="#131313" d="M363.2-47.6l-13.6,36.3l-0.5,1.3C343.8,4.5,328,12.1,313.4,7.6C297.2,2.6,289-15,294.9-31l7.4-19.8
		c1.6,2.2,3.6,4.2,5.8,5.9c-0.3,0.8-0.5,1.4-0.5,1.4l-5.7,15.1c-0.4,1.1-0.7,2.2-1,3.3c-2.1,10.1,3,20.8,12.9,24.8
		c7.6,3.1,15.9,1.5,21.8-3.3c0.1,0,0.1,0,0.1,0c2.9-2.3,5.2-5.4,6.6-9.2l1.1-2.8l13.3-35.7c3.9-10.4-1.2-22.2-11.6-26.2
		c-10.3-3.9-15.8-0.8-20.8,1l3.4-9.1c6.1-1.8,12.7-1.7,18.6,0.6c9.5,3.5,16,11.5,18.1,20.6C365.6-59,365.3-53.2,363.2-47.6z"/>
</g>
<path fill="#131313" d="M-410.6,5.8c-33.9,0-61.4,27.5-61.4,61.4s27.5,61.4,61.4,61.4s61.4-27.5,61.4-61.4S-376.7,5.8-410.6,5.8z
	 M-404.5,91.3l17.6,17.6c-5.3,3-11.3,5.1-17.6,5.9V91.3z M-417,114.7c-6.4-0.9-12.4-3-17.7-6.1l17.7-17.7V114.7z M-376.9,101.3
	l-27.6-27.6V47.8h17.9l-23.9-23.9l0,0l0,0l-23.9,23.9h17.5v25.5l-27.6,27.6c-8.6-8.6-13.8-20.5-13.8-33.6
	c0-26.4,21.5-47.9,47.9-47.9c26.4,0,47.9,21.5,47.9,47.9C-362.7,80.5-368.2,92.6-376.9,101.3z"/>
</svg>
