<?xml version="1.0" encoding="utf-8"?>
<!-- Generator: Adobe Illustrator 18.1.1, SVG Export Plug-In . SVG Version: 6.00 Build 0)  -->
<svg version="1.1" id="Layer_1" xmlns="http://www.w3.org/2000/svg" xmlns:xlink="http://www.w3.org/1999/xlink" x="0px" y="0px"
	 viewBox="0 0 50 50" enable-background="new 0 0 50 50" xml:space="preserve">
<g>
	<g>
		<circle fill="#FFFFFF" cx="19.1" cy="19.8" r="4.2"/>
	</g>
	<g>
		<circle fill="#FFFFFF" cx="30.9" cy="19.8" r="4.2"/>
	</g>
	<g>
		<path fill="#FFFFFF" d="M34.4,49.5c-3.5,0-7.4-0.6-11.6-1.9c-5.6-1.6-10.3-1.8-13.9-0.5l-1.8,0.7V18.4c0-9.9,8-17.9,17.9-17.9
			s17.9,8,17.9,17.9v29.5l-0.9,0.3C39.8,49.1,37.2,49.5,34.4,49.5z M14.3,43.6c2.8,0,5.9,0.5,9.2,1.5c6.7,2,12.4,2.3,16.8,1V18.4
			C40.3,10,33.4,3.1,25,3.1C16.6,3.1,9.7,10,9.7,18.4v25.7C11.2,43.8,12.7,43.6,14.3,43.6z"/>
	</g>
</g>
<g>
	<path fill="#FFFFFF" d="M-288.1,5l0-1l-1,0c-7-0.3-12.6,2.2-12.9,2.5l-21.1,21.1c-0.6,0.6-0.6,1.5,0,2l9.4,9.4c0.6,0.6,1.5,0.6,2,0
		l21.1-21.1C-290.3,17.6-287.8,12-288.1,5z M-290.2,6c0,3.8-0.7,6.7-1.3,8.4l-7.1-7.1C-296.9,6.7-294,6-290.2,6z M-312.7,37
		l-8.5-8.5L-301,8.4l8.5,8.5L-312.7,37z"/>
	<path fill="#FFFFFF" d="M-330.2,18.1l7.4,7.4l11.2-11.2l-15.2,0.4L-330.2,18.1z M-325.9,16.7l9.2-0.2l-6.1,6.1l-4.5-4.5
		L-325.9,16.7z"/>
	<path fill="#FFFFFF" d="M-298.4,27.4l-11.2,11.2l7.4,7.4l3.4-3.4L-298.4,27.4z M-302.2,43.1l-4.5-4.5l6.1-6.1l-0.2,9.2L-302.2,43.1
		z"/>
	<path fill="#FFFFFF" d="M-314.9,39.2l-8.4-8.4c-0.5-0.5-1.4-0.5-2,0l-1.7,1.7c-0.5,0.5-0.5,1.4,0,2l8.4,8.4c0.5,0.5,1.4,0.5,2,0
		l1.7-1.7C-314.4,40.6-314.4,39.7-314.9,39.2z M-317.6,40.9l-7.4-7.4l0.7-0.7l7.4,7.4L-317.6,40.9z"/>
	<path fill="#FFFFFF" d="M-307,22.9c1.5,1.5,4.5,0.8,7-1.6c2.4-2.4,3.1-5.4,1.6-7c-1.5-1.5-4.5-0.8-7,1.6
		C-307.9,18.4-308.6,21.4-307,22.9z M-299.9,15.8c0.5,0.5,0.1,2.3-1.6,4c-1.7,1.7-3.5,2.1-4,1.6c-0.5-0.5-0.1-2.3,1.6-4
		C-302.3,15.7-300.4,15.3-299.9,15.8z"/>
</g>
<path fill="#FFFFFF" d="M-188.6,29.7c1.2-0.4,2.3-0.8,3.3-1.3c4.7-2.1,7.1-4.4,6.8-6.7c-0.5-3.4-6.3-4.8-12.8-5
	c1.9-6.8,2.1-12.6-0.9-14c-3.9-1.9-10,5-14.8,13.2c-4.5-2.9-8.5-5.1-11.7-6.5c-3.9-1.7-6.1-1.9-7-0.7c-0.9,1.2,0,3.1,2.7,6.2
	c1.5,1.6,3.4,3.5,5.6,5.5c-5.8,2-10.5,4.8-10.1,8c0.3,2.3,3.2,3.9,8.3,4.6c1.4,0.2,2.9,0.3,4.5,0.4c-1.8,6.7-2.1,12.5,0.9,14
	c0.4,0.2,0.9,0.3,1.4,0.3c3.8,0,9-6,13.4-13.5c4.1,2.7,8,4.8,11.1,6.2c2.6,1.2,4.5,1.8,5.7,1.8c0.9,0,1.5-0.3,1.8-0.8
	c0.9-1.3-0.1-3.4-3.4-7C-184.9,33-186.6,31.4-188.6,29.7z M-180.2,21.9c0.1,1.1-1.3,2.9-5.7,4.9c-1.3,0.6-2.7,1.1-4.2,1.6
	c-1.2-1-2.4-2-3.7-3.1c0.6-0.9,1-2.1,1-3.2c0-0.2,0-0.3,0-0.5c0.4-1.1,0.8-2.1,1.1-3.2C-184.5,18.6-180.4,20.2-180.2,21.9z
	 M-207,18.7c0.1,0,0.4,0,0.4,0c1.8,0.2,3.4,1.5,3.7,3.3c-2.3,0.1-4.3,1.5-5.3,3.5c-1.1-0.8-2.1-1.6-3.1-2.4c0-0.1,0-0.2,0-0.3
	C-211.2,20.6-209.3,18.7-207,18.7z M-202.7,23.8c2.3,0,4.2,1.9,4.2,4.2c0,0.9-0.3,1.8-0.8,2.5c-0.5,0.1-1,0.2-1.6,0.3
	c-1.4-0.9-2.8-1.9-4.1-2.9c-0.6-0.4-1.1-0.8-1.7-1.2C-206.1,25-204.5,23.8-202.7,23.8z M-194.7,21.3c-0.5,1.3-1,2.7-1.6,4
	c-0.2,0.2-0.5,0.3-0.8,0.5c-0.7-1.7-2.1-3.1-4-3.6c-0.1-1.1-0.5-2.1-1.1-2.9c0.8-1,2-1.6,3.3-1.6C-196.7,17.8-195,19.3-194.7,21.3z
	 M-194.1,18.3c0.2,0,0.3,0,0.5,0c-0.1,0.2-0.1,0.3-0.2,0.5C-193.9,18.6-194,18.5-194.1,18.3z M-213.7,21.1c0.4-0.1,0.8-0.2,1.1-0.3
	c-0.1,0.3-0.2,0.7-0.3,1C-213.1,21.6-213.4,21.3-213.7,21.1z M-210.7,27.6c0.6,0.5,1.3,0.9,2.1,1.1c0.1,1.1,0.5,2,1.1,2.9
	c-1.6,0.1-3.2,0.2-4.7,0.2C-211.8,30.4-211.3,29-210.7,27.6z M-206.8,28.7c0.3,0.2,0.5,0.4,0.8,0.6c0.9,0.6,1.7,1.2,2.6,1.8
	c-0.6,0.1-1.2,0.1-1.8,0.2C-206,30.7-206.6,29.8-206.8,28.7z M-195.8,28.4c0.3-0.6,0.6-1.2,0.8-1.8c1,0.8,1.9,1.6,2.8,2.3
	c-1.4,0.4-2.9,0.8-4.5,1.1C-196.3,29.5-196,28.9-195.8,28.4z M-193,4.2c1,0.5,1.7,2.7,1,7.5c-0.2,1.5-0.6,3.1-1.1,4.8
	c-1.1,0-2.1,0-3.2,0c-0.8-0.4-1.7-0.6-2.6-0.6c-1.8,0-3.4,0.8-4.5,2.1c-0.7-0.5-1.4-0.9-2.3-1C-200.4,7.9-195,3.2-193,4.2z
	 M-221.2,14c-2.8-3.1-2.9-4.2-2.9-4.4c0.2-0.1,1.3-0.3,5.3,1.5c2.9,1.3,6.6,3.4,10.6,6c-1.2,0.3-2.3,0.7-3.1,1.6l0,0
	c-1.3,0.3-2.6,0.7-3.9,1C-217.7,17.6-219.7,15.7-221.2,14z M-218.8,31.3c-4.8-0.7-6.7-2.1-6.8-3.1c-0.2-1.7,3.2-4.3,9.9-6.4
	c0.9,0.7,1.8,1.5,2.7,2.3c0.1,0,0.1,0.1,0.2,0.1c0.1,0.7,0.4,1.4,0.8,2c-0.7,1.8-1.4,3.7-2,5.6C-215.7,31.6-217.3,31.5-218.8,31.3z
	 M-206.4,41.8c-3.3,3.6-5.5,4.4-6.5,4c-1.6-0.8-1.8-5.5,0.1-12.3c0.2,0,0.4,0,0.6,0c2.1,0,4.2-0.1,6.5-0.3c0.9,0.5,1.9,0.8,3,0.8
	c0.7,0,1.5-0.1,2.1-0.4C-202.4,36.8-204.4,39.6-206.4,41.8z M-187.5,38.6c-2.9-1.4-6.6-3.5-10.5-6c0.1-0.2,0.2-0.4,0.4-0.7
	c2.5-0.5,4.9-1.1,7.1-1.7c2.1,1.8,3.9,3.5,5.3,5c3.4,3.6,3.6,4.9,3.6,5.1C-181.9,40.5-183.1,40.7-187.5,38.6z"/>
</svg>
