<?xml version="1.0" encoding="utf-8"?>
<!-- Generator: Adobe Illustrator 18.1.1, SVG Export Plug-In . SVG Version: 6.00 Build 0)  -->
<svg version="1.1" id="Layer_1" xmlns="http://www.w3.org/2000/svg" xmlns:xlink="http://www.w3.org/1999/xlink" x="0px" y="0px"
	 viewBox="0 0 150 150" enable-background="new 0 0 150 150" xml:space="preserve">
<g>
	<g>
		<circle fill="#131313" cx="57.8" cy="60" r="12.1"/>
	</g>
	<g>
		<circle fill="#131313" cx="92.2" cy="60" r="12.1"/>
	</g>
	<g>
		<path fill="#131313" d="M102.4,146.4c-10.1,0-21.5-1.8-33.8-5.4c-16.3-4.8-30.1-5.2-40.6-1.4l-5.2,1.9V55.8
			C22.7,27,46.2,3.6,75,3.6s52.3,23.4,52.3,52.3v86l-2.5,0.9C118.2,145.2,110.7,146.4,102.4,146.4z M43.9,129.3
			c8.1,0,17.1,1.4,26.8,4.3c19.5,5.7,36.2,6.6,48.9,2.8V55.8c0-24.6-20-44.6-44.6-44.6c-24.6,0-44.6,20-44.6,44.6v75
			C34.6,129.8,39.1,129.3,43.9,129.3z"/>
	</g>
</g>
<path fill="#131313" d="M478.6-123.1h-0.3l-113.9,24c-3,0.1-5.6,1.4-7.7,3.4c-0.3-2.8-1.5-4.7-5.5-4.7h-1.4c-6,0-5.7,3.9-5.7,8.6
	v36.8c0,4.8,0,8.6,5.7,8.6h1.4c4.4,0,5.4-2.3,5.6-5.6c1.6,1.6,3.7,2.8,6,3.2l-3.4,11c-1.7,5.4,1.3,11.1,6.7,12.7l52.8,16.4
	c1,0.3,2,0.5,3,0.5c4.3,0,8.4-2.8,9.7-7.2l5.4-17.2l41.3,9.1h0.3c6.4,0,11.7-5.6,11.7-12.6v-74.5C490.3-117.4,485-123.1,478.6-123.1
	z M359.4-61v-25.5c0-3.4,2.4-6.2,5.3-6.2h0.3l19.2-4.1v46.1L365-54.9h-0.3C361.8-54.9,359.4-57.6,359.4-61z M425.5-17.2
	c-0.3,1-1,1.8-1.9,2.2c-0.9,0.5-1.9,0.6-2.9,0.3l-52.8-16.4c-2-0.6-3.1-2.7-2.5-4.7l3.6-11.6l61.6,13.5L425.5-17.2z M483.9-36
	c0,3.3-2.2,6-5,6.2l-88.2-19.4v-48.8l88.2-18.6c2.8,0.2,5,2.9,5,6.2V-36z"/>
<g>
	<g>
		<path fill="#131313" d="M375.3-100.9l-6.9,18.6c-1.7-2.2-3.6-4.2-5.9-5.8l5.8-15.4c4.2-11.3-1.7-24.1-13.3-28
			c-11.1-3.8-23.2,2.3-27.4,13.3l-13.8,37.1c-4.2,11.2,1.5,23.6,12.7,27.8c4.8,1.8,10,1.8,14.8,0.1c0,0,2.2-0.7,3.8-1.3
			c0.9-0.3,1.7,0.5,1.3,1.3l-2.6,7c0,0-0.1,0-0.1,0.1c-6.5,2.3-13.6,2.2-20-0.1c-15-5.7-22.6-22.4-17-37.4l13.8-37
			c5.9-15.9,23.7-23.8,39.1-17C373.8-131.5,380.7-115.3,375.3-100.9z"/>
	</g>
	<path fill="#131313" d="M363.2-47.6l-13.6,36.3l-0.5,1.3C343.8,4.5,328,12.1,313.4,7.6C297.2,2.6,289-15,294.9-31l7.4-19.8
		c1.6,2.2,3.6,4.2,5.8,5.9c-0.3,0.8-0.5,1.4-0.5,1.4l-5.7,15.1c-0.4,1.1-0.7,2.2-1,3.3c-2.1,10.1,3,20.8,12.9,24.8
		c7.6,3.1,15.9,1.5,21.8-3.3c0.1,0,0.1,0,0.1,0c2.9-2.3,5.2-5.4,6.6-9.2l1.1-2.8l13.3-35.7c3.9-10.4-1.2-22.2-11.6-26.2
		c-10.3-3.9-15.8-0.8-20.8,1l3.4-9.1c6.1-1.8,12.7-1.7,18.6,0.6c9.5,3.5,16,11.5,18.1,20.6C365.6-59,365.3-53.2,363.2-47.6z"/>
</g>
<path fill="#131313" d="M-410.6,5.8c-33.9,0-61.4,27.5-61.4,61.4s27.5,61.4,61.4,61.4s61.4-27.5,61.4-61.4S-376.7,5.8-410.6,5.8z
	 M-404.5,91.3l17.6,17.6c-5.3,3-11.3,5.1-17.6,5.9V91.3z M-417,114.7c-6.4-0.9-12.4-3-17.7-6.1l17.7-17.7V114.7z M-376.9,101.3
	l-27.6-27.6V47.8h17.9l-23.9-23.9l0,0l0,0l-23.9,23.9h17.5v25.5l-27.6,27.6c-8.6-8.6-13.8-20.5-13.8-33.6
	c0-26.4,21.5-47.9,47.9-47.9c26.4,0,47.9,21.5,47.9,47.9C-362.7,80.5-368.2,92.6-376.9,101.3z"/>
</svg>
