<?xml version="1.0" encoding="utf-8"?>
<!-- Generator: Adobe Illustrator 18.1.1, SVG Export Plug-In . SVG Version: 6.00 Build 0)  -->
<svg version="1.1" id="Layer_1" xmlns="http://www.w3.org/2000/svg" xmlns:xlink="http://www.w3.org/1999/xlink" x="0px" y="0px"
	 viewBox="0 0 251 203" enable-background="new 0 0 251 203" xml:space="preserve">
<g>
	<g>
		<polygon fill="#FFFFFF" points="125.5,61.6 125.5,61.6 125.5,61.6 52.5,134.5 70.2,152.2 125.5,96.9 180.8,152.2 198.5,134.5 		
			"/>
		<path fill="#FFFFFF" d="M125.5,2.6c-67.3,0-122,54.7-122,122c0,28.7,9.9,55,26.5,75.9h0.2h34.9h120.7h34h1.1
			c16.6-20.8,26.5-47.2,26.5-75.9C247.5,57.3,192.8,2.6,125.5,2.6z M208,175.5H43c-9.2-14.8-14.5-32.2-14.5-50.9
			c0-53.5,43.5-97,97-97c53.5,0,97,43.5,97,97C222.5,143.2,217.2,160.6,208,175.5z"/>
	</g>
</g>
</svg>
