<?xml version="1.0" encoding="utf-8"?>
<!-- Generator: Adobe Illustrator 18.1.1, SVG Export Plug-In . SVG Version: 6.00 Build 0)  -->
<svg version="1.1" id="Layer_1" xmlns="http://www.w3.org/2000/svg" xmlns:xlink="http://www.w3.org/1999/xlink" x="0px" y="0px"
	 viewBox="0 0 100 80" enable-background="new 0 0 100 80" xml:space="preserve">
<g>
	<g>
		<polygon fill="#FFFFFF" points="50,23.7 50,23.7 50,23.7 20.5,53.2 27.6,60.4 50,38 72.4,60.4 79.5,53.2 		"/>
		<path fill="#FFFFFF" d="M50-0.1C22.8-0.1,0.7,22,0.7,49.2c0,11.6,4,22.3,10.7,30.7h0.1h14.1h48.8h13.7h0.4
			c6.7-8.4,10.7-19.1,10.7-30.7C99.3,22,77.2-0.1,50-0.1z M83.4,69.8H16.6c-3.7-6-5.9-13-5.9-20.6C10.8,27.5,28.4,10,50,10
			c21.6,0,39.2,17.6,39.2,39.2C89.2,56.7,87.1,63.8,83.4,69.8z"/>
	</g>
</g>
</svg>
