<?xml version="1.0" encoding="utf-8"?>
<!-- Generator: Adobe Illustrator 18.1.1, SVG Export Plug-In . SVG Version: 6.00 Build 0)  -->
<svg version="1.1" id="Layer_1" xmlns="http://www.w3.org/2000/svg" xmlns:xlink="http://www.w3.org/1999/xlink" x="0px" y="0px"
	 viewBox="0 0 100 80" enable-background="new 0 0 100 80" xml:space="preserve">
<g>
	<g>
		<path fill="#FFFFFF" d="M21,69.8l-3.3,9.9h-1.8l-3.3-9.9H15l1.8,6.5l1.8-6.5H21z"/>
		<path fill="#FFFFFF" d="M30,74.7c0,2.1-0.4,3.6-1.2,4.3c-0.7,0.6-1.7,0.9-3,0.9c-1.7,0-2.8-0.5-3.4-1.5c-0.5-0.9-0.8-2.2-0.8-3.8
			c0-1.5,0.3-2.7,0.8-3.6c0.6-1,1.7-1.5,3.3-1.5c1.6,0,2.7,0.4,3.3,1.3C29.7,71.8,30,73.1,30,74.7z M27.8,75.3v-0.9
			c0-0.9-0.1-1.5-0.4-2c-0.2-0.5-0.8-0.7-1.6-0.7c-1.3,0-1.9,0.9-1.9,2.6v0.9c0,1.8,0.6,2.8,1.9,2.8c0.8,0,1.4-0.3,1.6-0.9
			C27.7,76.6,27.8,76,27.8,75.3z"/>
		<path fill="#FFFFFF" d="M34,79.8l-2.3,0V66.7H34V79.8z"/>
		<path fill="#FFFFFF" d="M43.9,79.8h-1.7l-0.5-1.2l-2.8,1.3c-0.8,0-1.5-0.3-2-0.9c-0.6-0.6-0.9-1.4-0.9-2.5v-6.7h2.3V76
			c0,1.1,0.4,1.7,1.3,1.7l2-1.1v-6.7h2.3V79.8z"/>
		<path fill="#FFFFFF" d="M54.2,79.8h-2.3v-6.4c0-0.6-0.1-1-0.3-1.2c-0.2-0.2-0.6-0.3-1-0.3l-2,0.9v7h-2.3v-9.9H48l0.5,1.2l2.8-1.3
			c0.8,0,1.5,0.3,2,0.9c0.6,0.6,0.9,1.4,0.9,2.5V79.8z"/>
		<path fill="#FFFFFF" d="M60.7,79.8h-1.4c-0.9,0-1.5-0.3-2-0.8c-0.4-0.5-0.7-1.1-0.7-1.8v-5.2h-1v-1.7h1v-2h2.3v2h1.6v1.7h-1.6V77
			c0,0.5,0.3,0.8,0.8,0.8h1V79.8z"/>
		<path fill="#FFFFFF" d="M70,75.3h-5.8c0,0.9,0.1,1.6,0.4,2c0.3,0.4,0.9,0.6,1.7,0.6c0.6,0,1-0.2,1.2-0.5c0.3-0.4,0.4-0.7,0.4-1h2
			c0,1.2-0.3,2.2-1,2.7c-0.7,0.6-1.6,0.9-2.6,0.9c-1.1,0-1.9-0.2-2.6-0.5c-1.2-0.6-1.9-2.3-1.9-5.1c0-1.6,0.4-2.8,1.1-3.6
			s1.8-1.1,3.2-1.1c2.5,0,3.8,1.4,3.8,4.2C70.1,74.2,70,74.7,70,75.3z M64.3,73.8H68c0-0.8-0.1-1.3-0.4-1.7
			c-0.3-0.3-0.7-0.5-1.3-0.5s-1.1,0.2-1.4,0.5C64.5,72.5,64.3,73,64.3,73.8z"/>
		<path fill="#FFFFFF" d="M79.6,75.3h-5.8c0,0.9,0.1,1.6,0.4,2c0.3,0.4,0.9,0.6,1.7,0.6c0.6,0,1-0.2,1.2-0.5c0.3-0.4,0.4-0.7,0.4-1
			h2c0,1.2-0.3,2.2-1,2.7C77.9,79.7,77,80,75.9,80c-1.1,0-1.9-0.2-2.6-0.5c-1.2-0.6-1.9-2.3-1.9-5.1c0-1.6,0.4-2.8,1.1-3.6
			c0.7-0.8,1.8-1.1,3.2-1.1c2.5,0,3.8,1.4,3.8,4.2C79.6,74.2,79.6,74.7,79.6,75.3z M73.8,73.8h3.7c0-0.8-0.1-1.3-0.4-1.7
			c-0.3-0.3-0.7-0.5-1.3-0.5c-0.6,0-1.1,0.2-1.4,0.5C74,72.5,73.8,73,73.8,73.8z"/>
		<path fill="#FFFFFF" d="M86.9,69.8l-0.6,2.2C86.1,72,85.9,72,85.7,72c-0.6,0-1.3,0.2-2.1,0.7v7h-2.3v-9.9H83l0.5,0.9l2.4-1
			c0.1,0,0.3,0,0.5,0C86.6,69.7,86.8,69.7,86.9,69.8z"/>
	</g>
	<g>
		<g>
			<polygon fill="#FFFFFF" points="50,18.8 50,18.8 50,18.8 26.8,41.9 32.4,47.6 50,30 67.6,47.6 73.2,41.9 			"/>
		</g>
		<g>
			<path fill="#FFFFFF" d="M50,0C28.6,0,11.2,17.4,11.2,38.8c0,9.1,3.2,17.5,8.4,24.1h0.1h11.1h38.4H80h0.3c5.3-6.6,8.4-15,8.4-24.1
				C88.8,17.4,71.4,0,50,0z M76.2,55H23.8c-2.9-4.7-4.6-10.2-4.6-16.2C19.2,21.8,33,7.9,50,7.9c17,0,30.8,13.8,30.8,30.8
				C80.8,44.7,79.1,50.2,76.2,55z"/>
		</g>
	</g>
</g>
</svg>
