<?xml version="1.0" encoding="utf-8"?>
<!-- Generator: Adobe Illustrator 18.1.1, SVG Export Plug-In . SVG Version: 6.00 Build 0)  -->
<svg version="1.1" id="Layer_1" xmlns="http://www.w3.org/2000/svg" xmlns:xlink="http://www.w3.org/1999/xlink" x="0px" y="0px"
	 viewBox="0 0 50 50" enable-background="new 0 0 50 50" xml:space="preserve">
<g>
	<path fill="#FFFFFF" d="M6-33H4c0,3,0,7,0,7H1c0,0,0-4,0-7H0v-3h1v-1c0-1.2,0.5-3,2.9-3L6-40v2c0,0-1.1,0-1.4,0
		C4.4-38,4-37.4,4-36.9v0.9h2.3L6-33z"/>
</g>
<g>
	<path fill="#FFFFFF" d="M111.1-37.1v-4h-2.5c0,0-0.1,3.2-3.5,4.5v2.5h2v6.7c0,0,0.1,3.3,5,3.3c0,0,2.1-0.4,3.4-1.3v-2.7
		c0,0-1.4,0.8-2.5,0.8c-1.6,0-1.9-0.5-1.9-1.2c0-0.7,0-5.6,0-5.6l4.1-0.1v-3H111.1z"/>
</g>
<g>
	<path fill="#FFFFFF" d="M62.5-35.3c0.2,2.1-0.6,3.2-0.9,3.9c-0.3,0.6-1.7,3.4-5.6,4.5c-3.9,1.1-7-1.1-7-1.1
		c2.8,0.3,4.5-1.3,4.5-1.3c-2.4-0.2-2.8-2.2-2.8-2.2c1,0.2,1.3-0.1,1.3-0.1c-2.5-0.8-2.4-3-2.4-3c1,0.5,1.3,0.3,1.3,0.3
		c-2.3-1.9-0.9-4.1-0.9-4.1c3,3.5,6.4,3.3,6.4,3.3c-0.1-0.8-0.1-2.8,1.9-3.6c2-0.8,3.3,0.4,3.3,0.4c0.8,0,2.9-1,2.9-1
		c-0.4,1.2-2.2,2.2-2.2,2.2c0.7-0.1,2.2-0.2,2.2-0.2C64.3-36.9,62.5-35.3,62.5-35.3z"/>
</g>
<g>
	<polygon fill="#FFFFFF" points="17.2,0 15.4,7.4 15.3,7.4 13.4,0 10.5,0 13.9,11.1 13.9,18.4 16.8,18.4 16.8,10.8 20.1,0 	"/>
	<path fill="#FFFFFF" d="M22.8,16.1c-0.2-0.2-0.3-0.5-0.3-0.9V7.9c0-0.3,0.1-0.5,0.3-0.7C23,7,23.3,6.9,23.6,6.9
		c0.3,0,0.6,0.1,0.8,0.3c0.2,0.2,0.3,0.4,0.3,0.7v7.4c0,0.4-0.1,0.7-0.3,0.9c-0.2,0.2-0.5,0.3-0.8,0.3C23.3,16.4,23,16.3,22.8,16.1
		 M21,5.4c-0.7,0.6-1,1.5-1,2.5l0,7c0,1.2,0.3,2.1,1,2.8c0.7,0.7,1.5,1,2.7,1c1.1,0,2-0.3,2.7-1c0.7-0.7,1-1.6,1-2.7V8
		c0-1-0.3-1.9-1-2.5c-0.7-0.7-1.5-1-2.6-1C22.6,4.5,21.7,4.8,21,5.4"/>
	<path fill="#FFFFFF" d="M34.1,4.9v10.3c-0.2,0.3-0.5,0.5-0.8,0.7c-0.3,0.2-0.5,0.3-0.7,0.3c-0.2,0-0.4-0.1-0.5-0.2
		C32,15.8,32,15.6,32,15.3V4.9h-2.5v11.4c0,0.8,0.1,1.4,0.4,1.8c0.3,0.4,0.7,0.6,1.3,0.6c0.5,0,1-0.1,1.5-0.4c0.5-0.3,1-0.7,1.5-1.3
		v1.5h2.5V4.9H34.1z"/>
	<g>
		<path fill="#FFFFFF" d="M29.4,33.3c-0.2,0-0.4,0-0.5,0.1c-0.2,0.1-0.4,0.2-0.5,0.4v8.5c0.2,0.2,0.4,0.4,0.6,0.5
			c0.2,0.1,0.4,0.1,0.6,0.1c0.3,0,0.5-0.1,0.7-0.3c0.1-0.2,0.2-0.5,0.2-0.9v-7c0-0.5-0.1-0.8-0.3-1C30,33.4,29.7,33.3,29.4,33.3z"/>
		<path fill="#FFFFFF" d="M38.7,33.4c-0.4,0-0.7,0.1-0.9,0.4c-0.2,0.2-0.3,0.7-0.3,1.2v1.4h2.2v-1.4c0-0.6-0.1-1-0.3-1.2
			C39.3,33.5,39.1,33.4,38.7,33.4z"/>
		<path fill="#FFFFFF" d="M45.5,28.2c0-3.3-2.7-5.9-6-5.9c-4.5-0.2-9.1-0.3-13.8-0.3c-0.2,0-0.5,0-0.7,0c-0.2,0-0.5,0-0.7,0
			c-4.7,0-9.3,0.1-13.8,0.3c-3.3,0-6,2.7-6,5.9c-0.2,2.6-0.3,5.2-0.3,7.8c0,2.6,0.1,5.2,0.3,7.8c0,3.3,2.7,5.9,6,5.9
			C15.2,49.9,20.1,50,25,50c4.9,0,9.8-0.1,14.5-0.3c3.3,0,6-2.7,6-5.9c0.2-2.6,0.3-5.2,0.3-7.8C45.8,33.4,45.7,30.8,45.5,28.2z
			 M13.2,44.9h-2.8V29.2H7.4v-2.7h8.7v2.7h-2.9V44.9z M23.3,44.9h-2.5v-1.5c-0.5,0.6-0.9,1-1.5,1.3c-0.5,0.3-1,0.4-1.5,0.4
			c-0.6,0-1-0.2-1.3-0.6c-0.3-0.4-0.4-1-0.4-1.8V31.3h2.5v10.4c0,0.3,0.1,0.6,0.2,0.7c0.1,0.1,0.3,0.2,0.5,0.2
			c0.2,0,0.4-0.1,0.7-0.3c0.3-0.2,0.5-0.4,0.8-0.7V31.3h2.5V44.9z M33,42.1c0,1-0.2,1.7-0.6,2.2c-0.4,0.5-1,0.8-1.7,0.8
			c-0.5,0-0.9-0.1-1.3-0.3c-0.4-0.2-0.7-0.5-1.1-0.9v1h-2.6V26.5h2.6v5.9c0.3-0.4,0.7-0.7,1.1-0.9c0.4-0.2,0.8-0.3,1.2-0.3
			c0.8,0,1.4,0.3,1.8,0.9c0.4,0.6,0.6,1.4,0.6,2.5V42.1z M42.4,38.4h-4.8V41c0,0.7,0.1,1.2,0.3,1.5c0.2,0.3,0.5,0.4,0.9,0.4
			c0.4,0,0.7-0.1,0.9-0.4c0.2-0.2,0.2-0.7,0.2-1.5V40h2.6v1c0,1.4-0.3,2.4-0.9,3.1c-0.6,0.7-1.6,1.1-2.8,1.1c-1.1,0-2-0.4-2.7-1.1
			c-0.7-0.7-1-1.8-1-3.1V35c0-1.2,0.4-2.1,1.1-2.9c0.7-0.7,1.6-1.1,2.8-1.1c1.2,0,2,0.3,2.7,1c0.6,0.7,0.9,1.7,0.9,3V38.4z"/>
	</g>
</g>
</svg>
